<svg width="342" height="265" viewBox="0 0 342 265" fill="none" xmlns="http://www.w3.org/2000/svg">
<g opacity="0.3">
<path d="M366.868 87.1636C366.14 86.3369 365.535 85.6514 364.84 84.8608C364.25 84.7162 363.498 84.5321 362.46 84.2789V86.2974C361.393 86.1708 361.265 85.2849 361.238 84.491C361.191 83.0873 360.523 82.203 359.356 81.5044C358.575 81.0376 357.921 80.362 357.205 79.7867C356.116 78.9139 355.081 77.9573 353.914 77.2061C352.943 76.5815 351.815 76.1985 350.666 75.6676C348.809 76.4845 346.897 75.14 344.699 75.2403C344.976 76.3613 345.202 77.2817 345.472 78.3715C345.018 78.6575 344.504 78.983 344.136 79.2147C343.263 78.4307 342.607 77.8422 341.823 77.1371C342.189 76.8708 342.475 76.6867 342.735 76.4697C342.992 76.2544 343.222 76.0062 343.508 75.7301C342.993 75.4802 342.653 75.3142 342.493 75.237C341.788 75.9668 341.19 76.5864 340.592 77.2061C338.588 76.7327 336.66 76.5174 334.745 76.593C333.739 76.6325 333.006 76.501 332.733 75.6413C332.587 74.614 332.441 73.5883 332.322 72.7566C329.41 71.3332 329.027 71.3266 326.571 72.0383C325.708 72.2882 324.783 72.3276 324.319 72.3983C322.95 71.0965 321.887 70.084 320.58 68.8397C320.902 68.7477 321.208 68.6622 321.515 68.5751C320.558 67.4047 319.552 66.9445 318.236 67.265C318.085 67.625 317.938 67.9702 317.766 68.3762C317.281 68.3088 316.849 68.2496 316.336 68.1789C316.467 67.5675 316.574 67.076 316.678 66.5977C314.321 65.5408 311.983 65.051 309.697 66.7259C309.786 67.8633 309.876 69.0452 309.981 70.4028C309.353 70.222 308.956 70.107 308.599 70.0051C308.213 70.4604 307.907 70.822 307.456 71.3529C307.383 70.8088 307.345 70.536 307.299 70.2023C306.679 69.9985 306.072 69.7996 305.477 69.604C304.795 70.0051 304.133 70.393 303.428 70.8072C302.825 70.1711 302.284 69.5991 301.735 69.0205C300.86 70.0708 301.398 71.8246 299.938 72.8931C299.18 71.9759 298.308 71.3611 297.793 70.1547C297.203 68.7723 296.669 67.1056 294.951 66.5007C295.735 65.6854 296.523 64.8685 297.417 63.9398C296.894 63.3744 296.544 62.9964 296.235 62.6643C295.52 62.8616 295.04 62.9947 294.734 63.0785C293.87 62.5312 293.165 62.0841 292.379 61.5861C292.057 61.7603 291.667 61.9723 291.181 62.2353C291.305 62.8796 291.427 63.501 291.573 64.2554C291.066 64.5562 290.518 64.88 290.058 65.1512C288.49 64.7222 287.061 64.3327 285.747 63.9743C285.599 63.2955 285.505 62.8616 285.423 62.4884C284.289 62.2304 283.274 61.9986 282.26 61.7685C282.275 61.8293 282.29 61.8885 282.303 61.9493C281.427 62.0562 280.551 62.1614 279.709 62.2649C279.578 61.8408 279.504 61.6025 279.423 61.3461C277.752 62.117 276.922 60.5423 275.641 60.2349V58.9627C276.493 58.3447 277.372 57.7793 278.167 57.1119C279.512 55.986 280.192 54.4705 280.309 52.7512C280.349 52.1775 280.105 51.1042 279.879 51.0713C278.284 50.8494 278.473 49.0529 277.277 48.4118H273.948C273.769 48.6189 273.567 48.8523 273.345 49.1088C272.894 49.0331 272.444 48.9575 271.954 48.8753C272.303 48.208 272.592 47.6557 272.837 47.1889C271.908 46.7237 271.142 46.3391 270.426 45.9792C270.791 45.2724 271.024 44.8236 271.266 44.3552C270.542 43.9706 269.939 43.6484 269.106 43.2046C268.284 44.0084 267.39 44.8713 266.51 45.749C265.493 46.7665 266.417 48.2803 265.677 49.4211C264.975 49.5213 264.336 49.6117 263.696 49.7021C263.759 49.7909 263.82 49.8796 263.882 49.9684C263.159 50.6555 262.436 51.3425 261.561 52.1726C259.931 51.5957 258.269 50.4254 256.487 51.88C256.52 52.0115 256.582 52.263 256.646 52.5227C254.709 53.7308 251.827 53.4843 250.926 56.0649C250.116 56.4117 249.468 56.6878 248.816 56.9673C248.895 57.7184 248.959 58.343 249.016 58.8871C249.409 59.5561 249.781 60.1856 250.253 60.9878C248.301 61.3527 246.682 61.7702 245.037 61.9263C243.839 62.0397 242.846 62.2994 242.369 63.0194C242.621 64.3688 242.818 65.429 242.961 66.2032C243.822 67.0481 244.537 67.7483 245.302 68.4962C244.738 69.0024 244.406 69.3016 244.02 69.6484C242.872 68.6293 241.799 67.676 240.8 66.7884C239.698 67.3686 238.781 67.8502 237.765 68.386C237.728 68.7657 237.685 69.2095 237.647 69.5991C238.063 69.9344 238.411 70.2155 238.78 70.5113C238.033 71.4203 237.303 71.343 236.34 70.5376C236.449 69.3624 236.565 68.105 236.682 66.8377C236.445 67.9669 235.454 68.4551 234.575 68.9531C234.402 69.4512 234.254 69.8785 234.126 70.2483C234.608 71.3217 235.076 72.3704 235.52 73.3615C234.655 74.8589 234.445 76.3152 235.098 77.9737C235.846 77.8094 236.534 77.6581 237.299 77.4905C237.668 77.7518 238.06 78.0296 238.627 78.4323C237.474 78.7594 236.57 79.0158 235.553 79.3051C235.737 80.4245 235.895 81.3795 236.067 82.4232C235.032 83.8713 233.977 85.3457 232.829 86.9483C231.866 86.0065 230.213 86.9976 229.552 85.3852C230.617 85.086 231.595 84.8099 232.649 84.5123C233.28 82.8769 233.876 81.3351 234.425 79.9116C233.888 79.2575 233.513 78.8038 233.196 78.4175C233.196 77.0335 232.907 75.6775 233.265 74.5236C233.783 72.8585 233.484 71.5781 232.494 70.5491C232.626 68.6671 234.217 67.1993 233.222 65.2367C232.012 65.1825 230.865 65.1315 229.668 65.0773C229.333 66.5665 229.004 68.0244 228.626 69.7043C228.165 70.102 227.56 70.6247 227.113 71.0094C227.292 72.584 227.45 73.9746 227.599 75.2928C227.265 75.5591 227.037 75.7416 226.731 75.9848C227.362 76.2741 227.821 76.4829 228.048 76.5881C228.564 77.617 228.97 78.4257 229.478 79.435C229.452 79.4876 229.277 79.836 229.121 80.1467H228.215C226.891 79.1818 225.709 78.2384 224.44 77.4329C223.695 76.9596 222.837 76.6226 221.986 76.3744C220.503 75.9421 218.965 75.6627 218.141 74.0256C217.926 74.3116 217.775 74.5121 217.607 74.734C218.148 75.3126 218.641 75.8418 219.134 76.3695C219.249 76.2692 219.336 76.1936 219.423 76.118C219.706 76.9431 219.987 77.7683 220.293 78.6624C219.992 78.9451 219.662 79.2574 219.32 79.5796C218.677 79.2887 218.089 79.0224 217.495 78.7528C217.019 79.1802 216.58 79.5763 216.162 79.9511H214.093C214.113 80.0234 214.132 80.0941 214.152 80.1664C213.503 80.3817 212.852 80.5971 212.117 80.8403C212.014 80.0053 211.949 79.4744 211.826 78.4849C211.2 79.338 210.853 79.813 210.505 80.2864C208.489 80.6529 207.002 82.0468 205.311 83.0593C205.251 83.5771 205.192 84.0965 205.12 84.7359C204.426 84.9019 203.754 85.0646 203.059 85.2306C202.6 84.4335 202.224 83.7809 201.823 83.0873C202.516 82.5251 203.059 82.0879 203.65 81.6079C203.312 81.0326 203.019 80.5362 202.682 79.9642C202.104 79.9988 201.553 80.03 201.292 80.0448C201.177 81.3269 201.081 82.4117 200.963 83.7234C201.103 84.0209 201.354 84.5518 201.593 85.0581C201.399 85.7681 201.216 86.4355 201.006 87.2031C200.266 86.7823 199.617 86.4141 199.033 86.0804C197.96 87.1061 196.98 88.043 196.043 88.9372C196.306 89.7744 196.227 90.4817 195.805 91.0592C195.254 90.9885 194.717 90.9195 194.183 90.8521C193.884 90.5677 193.532 90.2341 193.173 89.8922C192.912 90.1289 192.766 90.2604 192.429 90.5677C192.958 91.0822 193.461 91.572 194.045 92.1391C194.008 92.3659 193.949 92.7325 193.9 93.0316C192.191 93.5428 191.732 91.7939 190.386 91.5556C190.309 90.3014 190.235 89.1065 190.134 87.4989C189.922 87.2886 189.396 86.7626 188.826 86.1955C189 85.9177 189.211 85.5791 189.357 85.3457C190.828 85.8635 192.159 86.3007 193.469 86.7987C195.003 87.3822 196.395 86.9352 197.178 85.5462C197.952 84.1737 197.607 82.6944 196.305 81.695C194.766 80.5149 193.243 79.3183 191.859 78.2416C190.236 77.6992 188.742 77.1995 186.975 76.6094C187.595 76.381 187.886 76.2741 188.177 76.1657C188.183 76.09 188.188 76.0144 188.195 75.9388H184.268C184.733 75.5591 184.87 75.4474 185.134 75.2304C184.868 75.1581 184.626 75.094 184.299 75.0052C185.021 74.5877 185.435 74.3461 186.004 74.0157C184.746 73.0591 183.612 72.1945 182.373 71.2494C182.164 71.7836 182.009 72.1797 181.855 72.5742C181.39 72.2882 180.943 72.012 180.701 71.8641C179.902 72.0564 179.278 72.206 178.886 72.3013C178.42 73.184 178.024 73.9319 177.565 74.7965C176.801 74.6814 176.117 74.5778 175.389 74.4677C175.625 74.8573 175.844 75.2172 176.061 75.5772C176.008 75.6758 175.954 75.7761 175.902 75.8747C175.283 75.6413 174.665 75.4079 174.024 75.1663C174.166 75.6725 174.32 76.2232 174.455 76.6999C173.863 78.0723 172.599 77.2472 171.781 77.6943C170.979 78.5638 170.188 79.4202 169.266 80.4195C169.295 80.7647 169.342 81.3121 169.388 81.8644C168.977 81.9252 168.597 81.9811 168.352 82.0172C167.532 83.3683 166.766 84.6307 165.997 85.898C166.291 86.1741 166.503 86.3747 166.968 86.8119C164.325 87.0617 165.354 89.4632 164.484 91.0181C164.147 90.5513 164.003 90.3508 163.838 90.1223C163.682 90.3869 163.521 90.6581 163.36 90.9293C163.552 91.0691 163.735 91.2022 163.677 91.1611C162.975 92.1884 162.336 93.1237 161.493 94.3565C160.849 94.7411 159.849 95.3394 158.648 96.0577C158.485 96.3585 158.197 96.8861 157.905 97.4269C158.061 97.7343 158.255 98.1123 158.58 98.7533C157.85 98.6021 157.412 98.5117 156.872 98.4016C156.897 98.8421 156.91 99.087 156.922 99.3253C157.737 99.5078 158.48 99.6755 159.221 99.8415C159.21 99.9648 159.2 100.088 159.188 100.21C158.444 100.29 157.701 100.372 156.904 100.458C156.989 100.967 157.063 101.414 157.124 101.781C157.589 101.722 157.98 101.673 158.73 101.577C158.097 102.381 157.699 102.887 157.407 103.259C157.461 104.059 157.507 104.733 157.563 105.535C158.222 106.252 158.991 106.594 159.869 106.561C160.659 105.841 161.434 105.134 162.303 104.342C162.387 103.905 162.502 103.308 162.616 102.711C163.212 105.331 164.626 107.506 165.484 109.873V112.158C165.936 112.22 166.191 112.255 166.682 112.322C166.531 110.78 167.857 110.917 168.51 110.591C169.072 109.791 169.503 109.176 169.909 108.597C169.376 107.44 169.542 106.456 170.369 105.489C171.123 104.607 171.758 103.62 172.471 102.644C171.81 101.957 171.238 101.36 170.441 100.532C170.081 97.8279 170.681 95.8555 172.93 93.9554C173.755 93.2568 174.503 92.4662 175.237 91.7627C174.402 90.0845 175.548 89.1525 176.054 88.2304C177.358 87.8573 178.582 87.5811 179.636 88.6693C179.575 89.1328 179.509 89.6275 179.432 90.2127C177.907 92.1901 176.306 94.266 174.902 96.0856C175.139 97.5173 175.561 98.446 175.357 99.6409C175.203 100.548 175.915 101.605 176.25 102.593C176.26 102.624 176.375 102.619 176.6 102.662C176.633 102.264 176.663 101.916 176.707 101.398C177.44 102.269 178.088 102.425 179.105 101.983C180.392 101.424 181.845 101.245 182.994 100.961C183.742 101.525 184.207 101.875 184.595 102.167C183.839 102.751 183.099 103.321 182.194 104.018C180.476 103.203 178.753 103.464 177.35 104.981C177.169 104.758 177.062 104.625 176.886 104.406C176.705 104.754 176.567 105.021 176.388 105.368C176.99 105.456 177.44 105.524 177.688 105.56C178.053 106.023 178.305 106.342 178.676 106.812C178.43 107.437 179.414 108.964 177.54 109.138C177.095 108.589 176.69 108.088 176.294 107.6C174.118 109.059 174.958 111.116 175.214 112.656C174.144 113.359 173.39 113.854 172.558 114.401C172.085 114.107 171.597 113.803 170.993 113.427C169.749 114.153 168.51 114.88 167.295 115.59C166.667 115.226 165.911 114.791 165.196 114.378C164.609 114.659 164.083 114.913 163.648 115.121C163.049 114.707 162.55 114.362 162.053 114.018C161.996 111.451 162.002 111.425 163.018 110.128C162.08 109.282 161.14 109.285 160.198 110.136C160.357 111.022 160.513 111.908 160.702 112.971C160.61 113.108 160.398 113.422 160.327 113.527C160.701 114.181 161.001 114.71 161.345 115.312C159.991 115.697 158.773 115.948 157.638 116.407C157.068 116.637 156.368 117.163 156.213 117.697C155.712 119.42 154.366 120.159 152.908 120.958C152.998 122.442 151.593 122.74 150.779 123.573C150.168 123.527 149.589 123.483 148.933 123.432C149.032 123.792 149.127 124.137 149.237 124.54C148.93 124.767 148.626 124.99 148.442 125.126C147.505 124.951 146.741 124.809 145.953 124.661C145.916 125.1 145.888 125.403 145.861 125.718C150.155 127.837 150.437 130.13 148.94 133.646C147.543 133.508 146.052 133.34 144.558 133.218C143.185 133.105 141.773 132.862 140.508 134.088C140.7 135.017 141.1 136.023 141.062 137.012C141.021 138.076 140.57 139.124 140.345 140C140.629 140.967 140.874 141.805 141.134 142.688H142.977C143.437 143.095 143.877 143.487 144.137 143.717C145.588 143.413 146.852 143.146 148.514 142.799C149.073 142.241 149.923 141.391 150.552 140.761C150.082 137.39 152.771 136.858 154.425 135.579C154.111 134.479 154.134 133.578 155.311 133.047C156.1 133.31 156.897 133.577 157.666 133.831C158.743 133.176 159.8 132.53 160.926 131.843C161.381 132.027 161.859 132.219 162.187 132.352C163.383 134.285 164.603 135.875 166.644 136.83C168.978 137.921 169.493 139.238 169.075 141.402C169.414 140.868 169.752 140.334 170.032 139.895C169.863 139.308 169.743 138.896 169.634 138.524C170.157 138.21 170.559 137.967 171.039 137.678C169.669 136.807 168.403 136.001 166.966 135.086C166.763 134.604 166.485 133.948 166.302 133.516C165.679 132.929 165.213 132.489 164.774 132.074C164.813 131.3 164.846 130.648 164.877 130.028C165.413 129.893 165.839 129.786 166.319 129.665C166.406 130.049 166.491 130.431 166.564 130.756C166.907 130.557 167.157 130.413 167.52 130.202C167.984 131.208 168.385 132.081 168.788 132.954C168.875 132.868 168.962 132.783 169.049 132.699C170.482 133.8 171.916 134.903 173.329 135.99C173.153 136.7 173.033 137.191 172.93 137.605C173.97 139.187 174.565 141.245 176.876 140.916C176.753 139.974 176.623 138.978 176.475 137.839C177.029 138.016 177.389 138.133 177.803 138.265C178.121 137.872 178.439 137.476 178.855 136.958C179.763 137.176 180.686 137.4 181.778 137.663C181.441 138.215 181.212 138.59 181.133 138.718C181.342 139.533 181.487 140.142 181.654 140.745C181.829 141.369 182.024 141.989 182.195 142.56C183.564 143.233 184.874 143.883 186.314 143.021C187.016 143.396 187.647 143.733 188.346 144.106C189.068 143.789 189.829 143.454 190.576 143.125C190.925 143.337 191.255 143.536 191.554 143.718C191.648 144.609 191.737 145.444 191.852 146.534C190.56 147.65 191.063 149.93 189.455 151.066C188.274 150.903 187.179 150.753 185.859 150.573C185.371 150.809 184.677 151.145 183.837 151.551C181.165 150.699 178.374 149.812 175.177 148.794C174.938 148.912 174.312 149.226 173.615 149.576C173.932 150.895 173.982 152.037 172.729 152.223C171.526 151.781 170.597 151.509 169.733 151.099C169.185 150.839 168.676 150.43 168.257 149.987C167.542 149.233 166.764 148.725 165.681 148.73C164.202 148.737 163.066 148.003 162.042 146.947C162.458 146.465 162.839 146.024 163.15 145.663C163.036 144.81 162.939 144.077 162.819 143.176C162.614 143.076 162.209 142.878 162.149 142.85C161.003 142.974 160.234 143.117 159.463 143.125C157.918 143.141 156.312 143.03 154.844 143.263C152.717 143.602 150.694 144.581 148.626 145.288C148.651 145.36 148.677 145.434 148.702 145.507H145.506C145.069 145.161 144.645 144.828 144.111 144.405C143.925 146.782 142.52 147.956 140.685 148.598C140.371 149.997 138.94 151.041 140.113 152.512C138.738 153.579 138.041 155.318 136.357 155.278C135.549 156.358 134.883 157.248 134.219 158.137C134.257 158.152 134.293 158.168 134.331 158.183C133.266 160.122 132.202 162.062 131.004 164.245C132.296 163.868 132.409 164.401 132.444 165.078C132.488 165.939 132.575 166.797 132.669 167.955C132.347 168.898 131.916 170.162 131.471 171.471C131.635 171.824 132.051 172.284 131.977 172.644C131.757 173.709 132.219 174.194 133.019 174.82C134.038 175.618 134.969 176.651 135.613 177.771C136.216 178.819 136.737 179.776 137.856 180.393C138.708 180.861 139.441 181.563 140.174 182.22C140.975 182.939 142.012 183.445 142.889 182.978C144.818 181.951 146.693 182.186 148.662 182.727C148.902 182.603 149.137 182.495 149.361 182.365C151.046 181.39 152.9 181.048 154.808 180.904C156.512 180.774 157.186 181.898 157.568 183.257C159.3 182.988 160.867 182.896 162.229 184.466C162.022 185.281 161.494 186.21 161.656 186.995C161.869 188.026 161.519 188.672 160.783 189.492C162.116 191.06 163.411 192.582 164.82 194.241C165.413 196.364 166.057 198.665 166.772 201.226C166.393 201.882 165.959 202.735 165.431 203.526C164.159 205.433 164.259 208.582 165.324 210.638C166.171 212.272 167.282 213.794 167.335 215.863C167.379 217.575 167.933 219.355 168.626 220.944C169.452 222.833 170.666 224.55 171.641 226.219C171.426 229.577 171.761 229.085 173.143 230.098C175.068 229.873 176.812 229.602 178.564 229.486C179.92 229.398 181.16 229.072 182.217 228.236C184.422 226.492 185.866 224.087 187.562 221.906C187.823 221.57 187.907 221.063 187.973 220.62C188.091 219.808 188.134 218.987 188.203 218.239C189.276 217.681 190.235 217.183 191.329 216.615C191.009 214.741 190.721 213.054 190.417 211.278C192.207 209.754 193.828 207.957 196.094 207.26C196.492 206.465 196.816 205.819 196.961 205.53C196.867 203.547 196.788 201.91 196.704 200.133C194.403 199.113 196.647 196.32 194.807 195.146C195.955 191.601 198.192 188.912 200.938 186.915C203.568 185.003 205.776 182.904 207.125 179.996C207.87 178.392 209.293 176.924 208.685 175C206.091 175.496 203.545 175.984 201.257 176.421C199.934 175.573 200.028 174.536 200.036 173.533C200.978 173.634 201.906 173.739 202.71 173.012C202.929 172.815 203.302 172.79 203.603 172.68C205.606 171.954 207.61 171.227 209.617 170.497C209.865 170.087 210.1 169.697 210.393 169.21C211.356 168.982 212.367 168.744 213.13 168.563C214.28 167.624 215.273 166.814 216.264 166.004C216.512 165.284 216.963 164.723 217.4 164.151C217.87 163.535 218.327 162.908 218.953 162.065C217.487 161.135 216.095 160.254 214.829 159.452C214.79 158.727 214.765 158.265 214.745 157.897C213.92 158.584 213.148 159.702 212.204 159.874C211.354 160.029 210.155 161.089 209.403 159.93C209.297 159.08 209.213 158.42 209.073 157.322C208.871 158.176 208.775 158.582 208.68 158.988C208.573 159.01 208.466 159.031 208.36 159.051C208.102 158.392 207.845 157.732 207.507 156.868C206.377 155.786 205.562 154.279 205.102 152.386H208.031C208.529 153.316 208.991 154.179 209.313 154.782C210.344 155.499 211.147 156.056 212.206 156.792C212.913 156.546 213.805 156.233 214.946 155.834C215.373 156.376 215.87 157.006 216.471 157.772C219.627 158.947 223.122 158.628 226.457 158.239C227.703 159.601 228.792 160.795 229.953 162.064C229.933 162.123 229.859 162.355 229.78 162.596C230.277 163.125 230.776 163.658 231.375 164.297C232.019 163.791 232.593 163.341 233.421 162.692C233.756 165.639 233.996 168.477 235.201 171.129C236.403 173.772 237.356 176.527 238.862 179.202C239.858 178.026 240.685 177.051 241.577 175.997C241.761 174.043 241.953 172.018 242.133 170.111C245.177 169.026 246.557 165.849 249.424 164.722C249.533 164.151 249.63 163.647 249.718 163.19C253.433 162.055 254.48 161.906 255.532 162.386C255.59 162.931 255.65 163.518 255.692 163.919C256.305 165.027 257.975 164.725 258.042 166.242C258.093 167.366 258.277 168.486 258.428 169.835C259.5 170.213 260.332 169.33 261.257 168.3C261.908 170.034 262.771 171.563 263.011 173.185C263.266 174.898 262.925 176.697 262.84 178.588C265.376 180.016 264.852 183.096 266.308 185.207C267.161 185.71 268.024 186.216 269.058 186.824C268.719 185.222 268.442 183.912 268.06 182.11C267.464 181.722 266.349 181.226 265.559 180.414C264.784 179.62 264.341 178.506 263.571 177.232C263.67 175.797 264.155 174.153 265.23 172.312C265.534 173.067 265.672 173.412 265.846 173.842C268.052 173.453 268.064 176.384 269.944 176.423C270.011 177.076 270.064 177.583 270.143 178.338C271.93 177.015 273.573 175.797 275.291 174.525C275.072 173.182 274.875 171.965 274.727 171.061C273.241 169.334 271.961 167.843 270.557 166.209C271.56 165.101 272.457 164.107 273.261 163.219H275.454C275.577 163.543 275.71 163.891 275.902 164.398C276.31 163.896 276.621 163.513 276.686 163.431C278.988 162.629 280.937 161.949 283.386 161.095C286.233 160.224 286.792 156.623 289.124 154.144C289.159 153.945 289.259 153.383 289.364 152.785C289.231 152.658 289.103 152.507 288.947 152.395C288.758 152.261 288.544 152.162 288.016 151.864C288.63 151.718 288.865 151.662 289.203 151.582C288.5 149.603 288.414 147.351 286.338 145.959C286.841 145.074 287.098 144.078 288.393 143.807C289.075 143.664 289.654 143.026 290.393 142.535C289.46 142.303 288.766 142.132 288.238 142.001C287.443 142.244 286.777 142.448 285.922 142.709C286.044 142.221 286.105 141.979 286.166 141.731C285.763 141.535 285.327 141.325 284.568 140.955C286.034 139.57 287.336 138.34 288.766 136.989C289.177 137.194 289.611 137.411 290.045 137.628C289.705 138.383 289.43 138.989 289.073 139.778C290.406 139.285 291.455 138.899 292.566 138.488C292.637 139.016 292.666 139.233 292.696 139.458C293.015 139.382 293.252 139.326 293.531 139.259C293.405 139.92 293.286 140.541 293.165 141.177C293.743 141.521 294.241 141.818 294.696 142.088V146.113C296.125 146.455 296.943 145.526 297.918 144.984V142.56C297.224 141.572 296.457 140.48 295.622 139.294C296.47 138.048 298.779 137.743 298.48 135.776C299.368 134.964 300.093 134.3 300.846 133.611C302.575 134.642 303.469 134.392 304.792 132.627C306.442 130.427 308.078 128.233 309.477 125.855C309.999 124.965 310.34 124.152 310.392 123.116C310.461 121.745 310.318 120.271 311.439 119.16C312.559 118.879 312.706 119.807 312.723 120.432C312.754 121.607 312.506 122.789 312.432 123.971C312.402 124.451 312.521 124.941 312.572 125.426C313.158 124.456 313.274 123.243 314.547 123.307C314.117 120.764 313.703 118.333 313.305 115.989C313.163 116.086 312.854 116.303 312.54 116.52C312.43 116.987 312.319 117.457 312.161 118.121C311.728 117.776 311.492 117.587 311.242 117.388C311.467 117.051 311.651 116.778 311.794 116.564C310.994 115.907 310.203 115.258 309.462 114.65C308.745 115.212 308.18 115.655 307.338 116.316C307.223 114.372 306.145 113.882 304.707 113.79C304.831 113.358 304.828 112.973 305.019 112.774C306.769 110.943 308.559 109.151 310.318 107.327C310.532 107.107 310.579 106.733 310.77 106.484C311.919 104.985 313.043 103.428 315.318 103.892C315.876 104.005 316.438 104.085 316.974 104.176C317.156 103.967 317.307 103.796 317.379 103.712C318.131 103.849 318.763 103.966 319.462 104.092C319.86 103.776 320.32 103.413 320.823 103.014C321.714 103.229 322.575 103.438 323.41 103.64C323.333 104.077 323.267 104.459 323.182 104.944C324.5 104.654 325.7 104.39 327.015 104.102C326.706 103.813 326.403 103.528 326.104 103.249C327.671 100.989 328.663 98.0778 332.049 97.9068C332.457 98.2471 332.809 98.5413 332.973 98.6777V100.841C334.142 99.9171 335.136 99.133 336.289 98.2224C336.341 97.7688 336.422 97.0653 336.51 96.2878C337.066 96.3486 337.502 96.3979 338.028 96.4554C337.865 96.9387 337.65 97.302 337.636 97.6701C337.582 99.2333 337.219 100.548 335.652 101.342C335.118 101.613 334.819 102.333 334.387 102.823C332.919 104.49 331.438 106.145 329.964 107.805C329.431 108.27 328.986 108.847 328.683 109.493C328.384 110.129 328.017 110.846 328.052 111.508C328.156 113.537 328.423 115.559 328.659 117.58C328.76 118.453 328.936 119.318 329.099 120.319C330.613 119.367 331.241 118.162 331.44 116.793C331.91 116.528 332.301 116.308 332.694 116.086C332.738 115.526 332.779 115.005 332.822 114.449C333.57 114.13 334.268 113.834 335.09 113.484C334.201 111.839 335.082 110.927 336.142 110.437V107.399C335.7 107.128 335.215 106.83 334.729 106.533C335.624 105.162 335.981 104.182 336.483 103.283C336.921 102.494 337.582 101.96 338.554 102.511C339.047 101.809 339.569 101.414 340.113 101.898C341.276 101.538 342.298 101.222 343.141 100.961C343.792 101.51 344.177 101.835 344.479 102.09C346.672 99.7067 349.121 97.7819 352.024 96.4916C352.482 96.2878 353.141 96.5754 353.707 96.5656C354.162 96.5574 354.614 96.4456 355.157 96.3667C354.466 94.6342 353.888 93.1796 353.302 91.7117C353.876 91.2992 354.502 90.8504 355.249 90.3162V86.8316C355.771 87.111 356.135 87.305 356.49 87.494C356.608 87.134 356.675 86.9286 356.871 86.327C357.17 87.3494 357.344 87.9427 357.558 88.6693C358.263 88.5706 358.868 88.4868 359.627 88.38C359.989 89.0325 360.36 89.7031 360.739 90.3853C361.695 90.9129 362.667 91.4504 364.061 92.2196C363.802 91.3797 363.697 91.0428 363.561 90.599C364.632 89.478 365.737 88.3241 366.856 87.1554L366.868 87.1636Z" fill="#E1DFDF"/>
<path d="M236.688 66.8376C236.726 66.66 236.746 66.4694 236.743 66.2573C236.725 66.4513 236.707 66.6436 236.688 66.8376Z" fill="#E1DFDF"/>
<path d="M55.5333 175.11C55.2999 173.78 55.8308 172.317 56.0281 170.92C55.1865 170.526 54.483 170.197 54.1296 170.031C52.4021 170.133 51.051 170.212 49.6357 170.295C50.4165 167.922 51.1134 165.81 51.8219 163.653C51.4553 163.477 51.0493 163.282 50.7469 163.136C49.8642 163.377 49.1196 163.579 48.4276 163.768C48.0463 164.794 47.6929 165.749 47.4069 166.52C45.8947 166.834 44.6849 167.085 43.4768 167.337C42.8128 167.021 42.1158 166.691 41.7443 166.513C39.3791 163.65 39.0306 160.76 40.2026 157.537C39.7785 156.506 40.0382 155.484 40.9028 154.682C41.6638 154.131 42.4265 153.581 43.5475 152.772C44.9068 152.844 46.7806 152.941 48.5312 153.033C48.9092 152.576 49.1952 152.23 49.5585 151.789C51.1644 151.99 52.7785 152.192 54.3926 152.394C54.3827 152.484 54.3729 152.575 54.3647 152.665C54.7213 152.544 55.078 152.422 55.2276 152.369C55.8818 152.89 56.3996 153.301 56.8253 153.64C56.8203 155.741 57.4795 157.361 59.396 158.857C59.4108 157.665 59.5587 156.773 59.396 155.939C59.2004 154.929 58.8503 153.913 58.372 153C57.7112 151.74 57.9759 150.645 58.8454 149.744C59.9664 148.584 61.2402 147.57 62.473 146.523C62.5749 146.436 62.764 146.452 62.81 146.47C63.6598 145.652 64.3205 145.017 64.9484 144.414C64.7709 143.653 64.572 142.796 64.3797 141.975C65.0092 141.24 65.8475 140.632 65.0043 139.552C66.6036 139.57 66.4376 138.403 66.5773 137.376C66.6135 137.108 67.031 136.892 67.3482 136.582C67.4682 137.086 67.5438 137.405 67.6013 137.645C68.1668 137.512 68.6171 137.407 69.2023 137.27C69.1415 137.02 69.0708 136.734 69.0182 136.518C69.49 136.231 69.942 135.957 70.2461 135.771H71.5429C70.9118 135.398 70.4696 135.135 70.0044 134.861C70.0603 134.548 70.039 134.254 70.1606 134.042C71.4591 131.766 73.8342 131.166 76.0549 130.354C76.2209 130.293 76.5496 130.681 76.88 130.914C76.4149 131.3 76.0302 131.619 75.5782 131.996C75.7985 132.379 75.9826 132.699 76.0647 132.842C77.6608 132.014 79.1681 131.23 80.7559 130.405C80.82 130.105 80.9104 129.691 80.9597 129.456C79.7384 129.287 78.5845 129.129 77.1331 128.929C77.5243 128.442 77.6871 128.238 77.8827 127.995C77.5211 127.739 77.1627 127.485 76.7124 127.167C76.9967 126.246 77.2679 125.368 77.5901 124.325C75.1344 123.374 73.5088 124.777 72.0097 126.138C71.3621 125.876 70.7671 125.656 70.1951 125.385C70.1096 125.344 70.1376 125.061 70.0866 124.704C70.6915 124.867 71.1632 124.994 71.5347 125.094C72.7856 124.048 73.951 123.075 75.3465 121.91H82.6691C83.0981 121.381 83.5058 120.879 84.0531 120.205C84.9407 119.887 86.0239 119.497 87.1844 119.08V116.446C86.7636 116.183 86.2705 115.876 86.0453 115.736C85.5029 114.916 85.1873 113.866 84.6629 113.749C82.6691 113.305 81.632 111.828 80.4025 110.397C80.4156 109.579 80.7854 108.654 80.0556 107.906C80.7723 106.977 78.2903 106.793 79.482 105.94C78.6684 104.544 77.9271 103.275 77.046 101.766C76.7173 102.82 76.4872 103.558 76.2571 104.296C76.1897 104.253 76.1223 104.209 76.0549 104.166C75.6916 104.733 75.3267 105.3 74.9076 105.955C74.6709 106.056 74.3126 106.209 74.0726 106.313C73.2146 105.772 72.4552 105.294 71.7468 104.847C71.6251 103.466 71.5051 102.085 71.4131 101.048C69.8384 99.5195 68.4659 98.1881 67.0688 96.8321C65.4695 98.1322 63.8291 96.2387 62.1295 96.9504C62.2955 98.8259 62.4566 100.668 62.6193 102.509C62.736 102.518 62.8511 102.526 62.9678 102.532C62.5568 103.459 62.1443 104.387 61.6709 105.453C63.903 106.464 63.3853 108.859 64.2762 110.606C63.0631 111.734 61.8435 112.868 60.5121 114.106C60.7356 114.978 60.9362 116.072 61.2978 117.109C61.8172 118.603 61.4358 119.65 59.83 120.388C59.1166 119.522 58.3753 118.619 57.5025 117.559C58.1304 117.368 58.4657 117.268 59.0574 117.089C58.321 116.78 57.8641 116.589 57.2658 116.339C57.2099 115.207 57.154 114.076 57.0932 112.861C56.7858 112.829 56.4604 112.738 56.1448 112.766C53.9998 112.962 52.3626 111.852 50.8932 110.559C49.3892 109.234 47.826 108.446 45.8257 109.063C45.395 107.746 44.9956 106.522 44.6455 105.452C43.9403 105.177 43.4636 104.991 42.9755 104.801C42.2588 101.037 44.3332 98.3607 46.0919 95.6371C46.6574 95.5319 47.0995 95.4497 47.4283 95.3889C47.8622 94.3419 48.2435 93.4181 48.5838 92.5963C48.9257 92.6752 49.2166 92.8461 49.4007 92.7688C50.9474 92.1212 51.5244 90.7307 51.8169 89.248C51.9451 88.6021 52.0438 88.2832 52.8344 88.4607C52.6947 90.0831 53.4738 91.804 52.1243 93.3326C52.6519 93.4526 53.1483 93.5644 53.505 93.6449C53.7138 94.1035 53.8568 94.4158 54.0885 94.9254C54.8397 93.9375 55.4363 93.1518 56.0971 92.284C56.9025 92.8477 57.7112 93.4132 58.5807 94.0213C58.9341 93.5562 59.1823 93.2307 59.4798 92.8412C58.8076 92.7721 58.2931 92.7179 57.7638 92.6637C57.6504 92.0801 57.5534 91.5805 57.491 91.2599C56.2516 90.2704 55.1717 89.4091 54.2611 88.6843C54.9054 87.7096 55.4577 86.8745 56.1579 85.8144C58.395 84.6276 58.4575 84.3991 57.343 81.7511C57.1277 81.24 57.1326 80.6351 57.0373 80.0779C57.4548 79.9003 57.8608 79.7278 58.1189 79.6176C58.7681 77.9378 57.1129 77.5499 56.6395 76.4634C55.7503 76.2924 54.8216 76.1133 53.4623 75.8503C53.8485 76.9762 54.1066 77.7241 54.243 78.1219C53.8666 79.0801 53.5066 79.8034 53.2995 80.5693C52.9659 81.8037 52.8722 83.1335 51.6312 84.0375C51.194 83.4409 50.8176 82.928 50.382 82.333C50.5348 81.3567 50.6926 80.3392 50.8356 79.427C50.2899 78.8056 49.856 78.3125 49.4632 77.8638C48.9832 78.6183 48.4671 79.4302 47.8474 80.4033C47.6847 79.1459 47.5532 78.1334 47.4299 77.1767C46.8086 76.7066 46.2481 76.2809 45.6711 75.8453C45.8585 75.2717 46.0097 74.8032 46.0706 74.6175C45.7467 73.3387 45.5429 72.2555 45.1928 71.22C44.7836 70.0119 43.9502 69.1489 42.6813 68.8005C42.5333 68.7594 42.3328 68.9089 42.0731 68.9993C42.198 69.5303 42.3131 70.0217 42.4363 70.5444C42.0698 70.6891 41.7197 70.8271 41.2299 71.0211C41.3597 72.7371 41.4879 74.4466 41.5915 75.819C42.4577 76.1839 43.0248 76.4239 43.6478 76.6853V79.5124C43.988 79.2083 44.154 79.0571 44.5025 78.7448C43.9781 80.7468 42.9853 81.955 42.1586 81.7955C41.7049 81.452 41.2512 81.1101 40.6907 80.686C41.146 80.0664 41.5405 79.5272 41.8643 79.0851C41.6671 78.4095 41.4961 77.8276 41.3433 77.3049C40.699 76.7592 40.0743 76.23 39.6289 75.8519C38.9747 76.7921 38.3781 77.6501 37.788 78.4999C38.2745 78.7859 38.7709 79.0785 39.3035 79.3924C39.0668 79.9546 38.8547 80.4608 38.6328 80.9868C39.2985 81.2761 39.8788 81.5309 40.5149 81.807C40.436 82.1391 40.3653 82.4267 40.316 82.6322C38.5523 82.1391 36.9217 82.1966 35.2846 82.5582C34.3033 82.2097 33.2563 81.9763 32.3572 81.4799C31.5206 81.0181 30.651 80.3967 30.8516 79.1804C30.5804 79.0489 30.3075 78.9158 29.982 78.7563C29.0846 79.2494 28.1756 79.7475 27.0842 80.3474C27.7253 80.8455 28.0787 81.12 28.2923 81.286V83.6726C27.8189 83.4442 27.0464 83.2502 27.0415 83.0398C27.0119 81.7758 26.0766 81.927 25.4076 82.0076C24.3195 82.1391 23.2577 82.4974 22.1285 82.7735C21.2951 82.4563 20.4387 82.1308 19.1041 81.6229C20.0673 81.046 20.5653 80.7468 21.1505 80.3951C20.7149 79.8264 20.2842 79.2642 19.8421 78.6873C17.5951 79.3809 16.0106 77.7208 13.8196 77.3362C13.5517 76.9943 13.1407 76.4699 12.7956 76.0278H11.1716C10.5157 76.5028 10.7771 77.8194 9.50158 77.4759C9.37173 76.7527 9.23859 76.0196 9.01834 74.7884C8.65837 75.8749 8.44798 76.5094 8.21786 77.203C6.02352 76.9302 6.8503 74.4383 5.42521 73.6691C5.17701 74.269 4.93046 74.8673 4.68226 75.464C4.33051 75.6251 3.97712 75.7862 3.53825 75.9883C2.94323 74.8657 2.2348 74.9232 1.33241 75.6728C0.576305 76.3023 -0.263622 77.0288 -1.1693 77.2178C-1.8876 77.3674 -2.74396 76.8776 -3.41623 77.706C-3.31761 78.2238 -3.21406 78.7629 -3.03325 79.708C-4.8594 78.7202 -6.36338 77.9065 -7.88709 77.0814C-9.20698 76.5324 -10.5729 75.9637 -11.9388 75.3966C-11.9174 75.298 -11.8961 75.1994 -11.8747 75.1007C-12.5766 75.2109 -13.2784 75.3194 -14.0526 75.441C-14.4126 75.252 -14.8449 74.9314 -15.3298 74.7884C-16.6299 74.4088 -17.9514 74.1063 -19.605 73.6872C-20.034 73.7578 -20.8608 73.8926 -21.704 74.0307C-22.2037 73.4373 -22.6195 72.9426 -23.1307 72.3344C-23.6649 72.4347 -24.2846 72.553 -24.9618 72.6796C-25.0769 72.3673 -25.1919 72.0517 -25.3004 71.7575C-25.7524 71.9843 -26.119 72.1667 -26.6154 72.4166C-26.5069 71.9054 -26.4477 71.6243 -26.3935 71.3646C-26.8274 71.1509 -27.1298 71.003 -27.4668 70.837C-27.7857 71.3646 -28.0191 71.7509 -28.3117 72.2358C-29.0365 72.3936 -29.8091 72.5645 -30.6293 72.7437C-30.6753 73.0215 -30.7361 73.4045 -30.7937 73.7595C-31.7766 74.0422 -32.7086 74.3085 -33.6553 74.5813C-34.2569 75.9571 -34.8306 77.2671 -35.3664 78.4933C-36.4233 78.804 -37.3471 79.0768 -38.2856 79.353C-38.5437 81.9073 -34.9423 81.715 -35.3138 83.9932C-34.6563 84.3285 -34.1895 84.5668 -33.6718 84.8298C-33.5583 85.1355 -33.4252 85.4938 -33.3003 85.8308C-32.6839 85.8998 -32.0807 85.0155 -31.3328 86.1875C-32.084 86.3486 -32.6823 86.4768 -33.3595 86.6214C-33.5501 86.8351 -33.8411 87.1638 -34.0597 87.412C-34.6235 87.2444 -35.0492 87.1178 -35.3894 87.0159C-35.5669 86.5803 -35.7001 86.2516 -35.9121 85.7305C-36.6912 86.1957 -37.2945 86.5573 -37.8813 86.9074C-37.9667 86.7858 -38.0358 86.6839 -38.1755 86.4833C-38.2971 86.937 -38.3629 87.1869 -38.4829 87.6372C-38.6834 87.3792 -38.7985 87.2296 -38.8691 87.1375C-39.2603 87.5583 -39.691 88.0219 -40 88.3539C-39.7173 88.6317 -39.4181 88.9275 -39.0943 89.2464C-38.9776 89.2398 -38.6982 89.2267 -38.3974 89.2102C-38.9283 90.6616 -37.9996 91.0479 -37.1186 91.3668C-36.2885 91.2583 -35.4749 91.3257 -34.6777 91.2386C-33.9331 91.158 -33.205 90.9131 -32.4604 90.7389C-32.2911 91.6741 -32.153 92.4385 -31.9936 93.3294C-32.1086 93.548 -32.2878 93.8915 -32.388 94.0838C-34.0071 94.7364 -35.4897 95.3347 -37.0085 95.9478C-36.7636 96.2206 -36.5992 96.4014 -36.6534 96.3423C-37.1235 97.2068 -37.5328 97.9596 -37.8862 98.6106C-37.6544 99.2319 -37.4786 99.702 -37.4227 99.8515C-36.5104 100.103 -35.8168 100.295 -34.9144 100.544C-35.5357 101.194 -36.0025 101.684 -36.4496 102.153C-35.5127 103.009 -34.5774 102.812 -33.4712 101.829C-33.274 103.131 -33.1113 104.206 -32.9469 105.292C-32.5557 105.082 -32.1596 104.868 -31.6533 104.595C-31.078 104.95 -30.5027 105.305 -30.0145 105.608H-28.3725V107.902C-29.4212 108.862 -30.5915 109.936 -31.8555 111.093C-32.8433 111.053 -33.6537 111.509 -34.1041 112.679C-32.5771 112.051 -31.1503 111.463 -30.026 111.001C-27.8218 108.984 -25.8231 107.154 -23.7882 105.292C-24.2468 104.863 -24.5082 104.618 -24.9273 104.227C-24.1975 103.634 -23.563 103.119 -23.0765 102.723C-22.7362 101.983 -22.4256 101.313 -22.1084 100.622C-21.6498 100.742 -21.4081 100.807 -21.04 100.904C-21.2684 101.638 -21.4722 102.291 -21.6744 102.94C-21.5166 103.063 -21.3654 103.182 -21.2158 103.3C-21.3868 103.591 -21.5577 103.882 -21.727 104.171C-20.6718 103.706 -19.8943 102.744 -18.9179 102.462C-17.5997 102.08 -17.7328 101.387 -17.9235 100.458C-17.9449 100.35 -17.8446 100.218 -17.8364 100.197C-17.2479 100.128 -16.7121 100.064 -16.1302 99.9945C-14.6641 101.852 -12.6867 102.605 -10.3428 102.473C-9.6064 102.698 -8.87002 102.924 -7.98736 103.195C-7.2592 103.918 -6.35681 104.812 -5.26868 105.89C-4.93172 105.83 -4.31369 105.72 -3.64306 105.598C-3.82551 106.129 -3.98495 106.591 -4.18384 107.169C-3.52143 107.368 -2.9297 107.546 -2.21798 107.759C-2.38235 108.529 -2.52863 109.219 -2.6815 109.934C-2.51056 110.264 -2.32975 110.613 -2.1588 110.942C-1.74131 110.807 -1.3271 110.672 -0.903023 110.534C-1.08876 110.24 -1.26299 109.965 -1.42572 109.709C-0.976986 109.408 -0.541405 109.117 -0.0893898 108.815C0.190041 109.331 0.469467 109.844 0.740677 110.345C1.4524 110.822 2.15097 111.29 2.81502 111.735C2.91912 113.716 3.14322 114.935 3.4873 115.393C4.18587 115.509 4.868 115.624 5.6126 115.749C4.97649 117.206 5.03073 117.398 6.19118 118.067C6.38349 118.177 6.64319 118.169 7.13465 118.269C6.52156 118.7 6.16159 118.953 6.03174 119.043C5.66191 120.077 5.37755 120.871 5.19017 121.389C6.50841 122.592 7.82008 123.79 9.20407 125.054C8.72905 126.507 10.3136 127.688 10.0424 129.274C9.74813 131.003 9.59528 132.755 9.38324 134.474C9.6413 136.414 9.89771 138.35 10.0325 139.364C11.617 142.192 12.7561 144.223 13.7144 145.931C15.0277 146.694 16.0484 147.259 17.0363 147.88C17.2993 148.046 17.5524 148.35 17.6445 148.643C18.3611 150.939 19.4953 152.976 21.3362 154.592C21.0683 155.075 20.8447 155.478 20.6853 155.767C21.637 156.405 22.4342 156.939 23.1081 157.391C23.3174 158.537 23.9053 159.386 24.8718 159.937C24.7173 159.348 24.6992 158.888 24.4888 158.55C23.3563 156.719 22.2238 154.884 20.9894 153.122C20.4009 152.284 20.0952 151.455 20.0903 150.463C21.6107 150.374 22.1926 150.527 22.4293 151.46C22.9963 153.696 24.6269 155.086 26.1473 156.6C26.4613 156.912 26.6141 157.388 26.8771 157.853C28.0754 159.131 29.4314 160.423 30.5771 161.88C31.0241 162.448 31.3348 163.504 31.1162 164.133C30.6987 165.335 31.3973 165.668 32.1189 166.112C34.9477 167.85 37.9326 169.242 40.9521 170.067C42.0501 169.827 42.9837 169.625 43.9584 169.413C45.778 172.314 48.7103 172.676 51.3616 173.2C52.0651 174.005 52.6651 174.694 53.2552 175.37C52.8179 176.397 53.3867 176.747 54.2003 177.104C54.8923 177.408 55.4807 177.945 56.3009 178.507C57.1606 178.877 58.2504 179.346 59.2185 179.76C59.4733 179.099 59.7034 178.506 59.9302 177.916C59.138 178.077 58.3457 178.238 57.5649 178.397C56.8055 177.234 55.7322 176.249 55.5317 175.112L55.5333 175.11Z" fill="#E1DFDF"/>
<path d="M62.8105 146.468C62.8105 146.468 62.8003 146.478 62.7935 146.485C62.8275 146.484 62.8275 146.475 62.8105 146.468Z" fill="#E1DFDF"/>
<path d="M59.9318 177.914C59.9615 177.908 59.9896 177.903 60.0177 177.896C60.0424 177.88 60.0639 177.87 60.087 177.857C60.0441 177.85 60.0028 177.843 59.9599 177.838C59.95 177.863 59.9401 177.89 59.9302 177.914H59.9318Z" fill="#E1DFDF"/>
<path d="M120.834 74.6896C119.628 74.3346 118.699 74.0617 117.378 73.6738C118.168 73.4174 118.581 73.2842 118.965 73.1593C118.992 72.658 119.015 72.1994 119.021 72.0597C120.409 71.5584 121.505 71.1622 122.733 70.7168C123.168 71.6093 123.615 72.5232 124.056 73.424H125.982C126.421 71.274 125.29 69.6418 124.439 68.0277C124.662 67.3242 124.856 66.7144 125.096 65.9599C124.671 65.6624 124.215 65.3468 123.804 65.0592C123.336 65.4603 123.029 65.7216 122.531 66.1473C122.212 65.3156 121.977 64.6976 121.668 63.8889C122.404 64.0039 122.923 64.0861 123.469 64.1716C123.328 63.833 123.226 63.5914 123.093 63.2758C122.706 63.21 122.261 63.1344 122.093 63.1065C121.865 62.2107 121.682 61.4973 121.5 60.7872C122.32 61.1143 123.132 61.4381 123.982 61.7784C124.043 62.3093 124.109 62.8714 124.191 63.5815C125.386 63.1574 126.426 62.7892 127.509 62.4046C127.154 61.8145 127.863 60.9434 126.801 60.8119C126.48 61.1554 126.16 61.4989 125.839 61.8441C125.89 59.681 128.311 59.9243 129.163 58.325C128.491 58.1113 127.855 57.9091 126.923 57.6132C127.406 57.1875 127.692 56.936 128.029 56.6385C127.952 56.3197 127.869 55.9761 127.794 55.6605C128.239 55.3992 128.632 55.1707 128.974 54.9702C128.65 53.5665 128.336 52.2038 128.088 51.1223C127.352 50.9546 126.683 50.8018 126.046 50.6571V48.5795C126.536 48.0108 127.033 47.4338 127.475 46.921C128.284 47.133 129.025 47.3286 130.008 47.5883C129.962 46.7336 129.924 46.063 129.891 45.445C129 45.3085 128.354 45.2099 127.777 45.1228C127.569 44.4111 127.409 43.867 127.26 43.3542C127.511 43.1651 127.684 43.0353 128.044 42.7657C127.404 42.4452 126.936 42.2118 126.397 41.9422C126.538 38.2291 128.104 34.8135 129.02 31.1563C129.431 31.1859 129.857 31.2187 130.346 31.2549C130.629 30.65 130.923 30.0238 131.199 29.4353C130.716 29.1789 130.361 28.9915 129.579 28.5773C130.687 28.3965 131.306 28.2963 132.026 28.1796C132.233 27.7949 132.472 27.3577 132.679 26.9747C132.383 26.5753 132.146 26.2564 132.005 26.0658C131.245 26.1677 130.678 26.2433 130.111 26.3205C130.065 26.1874 130.018 26.0543 129.972 25.9211C130.353 25.5069 130.734 25.0927 131.045 24.7524C131.765 24.9267 132.327 25.0615 132.802 25.1765C133.397 24.7475 133.872 24.4056 134.331 24.0752C134.396 23.6643 134.457 23.2797 134.447 23.3438C135.679 22.1653 136.624 21.2596 137.521 20.3999C137.699 17.2687 134.858 17.4988 133.136 16.3942C132.485 17.0221 131.824 17.6582 131.14 18.3174C131.265 18.5426 131.476 18.9272 131.855 19.6159C131.001 19.4597 130.461 19.3628 129.886 19.2576C129.613 19.4334 129.306 19.634 128.897 19.897C128.839 19.2493 128.793 18.7382 128.737 18.1201C127.68 19.7687 126.689 21.3155 125.552 23.0923C124.791 21.1889 126.227 20.2241 126.489 18.9305C126.766 17.5465 126.901 16.243 126.66 14.882H124.564C124.495 15.6842 124.432 16.3959 124.358 17.2522C122.841 17.7141 121.85 19.2165 119.837 19.6751C120.323 17.7306 122.44 17.8407 122.82 16.0277C122.769 15.8502 122.629 15.3669 122.462 14.7851C121.293 14.7851 120.201 14.6273 119.182 14.8278C118.125 15.0349 117.072 15.4771 116.14 16.026C115.302 16.5208 114.631 17.3016 113.722 18.0988V16.151C114.891 15.2486 115.905 14.4678 117.361 13.3452H123.203C124.266 12.9047 125.338 12.4609 126.533 11.9645C126.998 11.307 127.554 10.5197 128.137 9.69453C126.955 7.90947 125.279 7.12707 123.418 6.65697C123.162 5.76938 122.91 4.90315 122.613 3.87913C121.853 4.31799 121.184 4.70426 120.353 5.18422C119.911 5.1645 119.284 5.13655 118.382 5.09711C119.148 4.58756 119.695 4.25882 120.201 3.87584C120.815 3.41396 121.998 3.32027 121.438 1.95929C120.308 1.40536 119.327 -0.175877 118.024 1.26893C117.092 0.759387 116.316 0.335314 115.699 0C113.178 0.149576 110.865 0.287647 108.582 0.42243C108.273 0.851435 108.015 1.20976 107.755 1.57138C107.391 1.43824 107.091 1.32811 106.83 1.23113C105.781 2.0464 104.77 2.83374 103.751 3.626C104.072 3.89885 104.438 4.20951 104.795 4.51359C104.544 4.86699 104.356 5.12998 104.236 5.29928C104.567 5.91567 104.856 6.4548 105.39 7.45088C104.364 7.04653 103.797 6.82299 103.301 6.62739C103.227 5.94197 103.171 5.4242 103.128 5.01985C102.39 4.64838 101.769 4.33443 101.041 3.96624C100.868 4.51031 100.709 5.01163 100.545 5.52775C99.8755 5.75294 98.8268 4.77001 98.4965 6.14578C98.8515 6.703 99.2115 7.26514 99.578 7.84044C100.707 8.17411 102.131 7.46567 102.982 9.00253C101.968 8.77406 100.952 8.54394 99.9183 8.31054C99.8837 8.68037 99.864 8.89898 99.8344 9.22114C99.2575 9.07978 98.7792 8.96308 98.24 8.82994C98.8362 9.80739 98.9534 10.5525 98.5918 11.0654C97.8571 10.523 97.2966 9.42003 96.0556 10.2961C96.2594 11.1328 96.4599 11.9464 96.6933 12.9014C97.2193 13.3633 97.8192 13.8892 98.4192 14.4169C98.3535 14.458 98.2894 14.4974 98.2236 14.5385C98.697 15.7351 99.1704 16.9334 99.6881 18.2418C99.2854 18.2894 98.9781 18.3256 98.6378 18.365C98.0247 17.2309 97.4396 16.1526 96.8561 15.0727C96.6933 15.2404 96.5306 15.408 96.3679 15.5757C95.8057 14.5418 95.2436 13.5095 94.5976 12.3228C94.6157 12.2784 94.6371 12.2242 94.6617 12.165C93.8925 11.7787 93.3418 10.7481 92.1518 11.353C91.4417 13.0296 92.6416 14.3462 93.1807 15.9537C92.6432 16.2364 92.086 16.5274 91.3957 16.889C90.988 15.7039 90.6264 14.6486 90.2763 13.6279C90.4834 13.5769 90.6889 13.526 90.8944 13.475C90.7777 13.3172 90.661 13.1578 90.5459 13H89.3937C89.2507 13.337 89.1159 13.6591 88.8825 14.2114C88.4666 13.4454 88.174 12.9096 87.9604 12.5135C86.0635 13.2729 84.3114 13.9747 82.6183 14.6519V15.5346C81.7686 16.0704 81.0831 16.5027 80.7248 16.7296C80.807 18.1497 80.8662 19.177 80.9253 20.2043C80.8563 20.7533 81.0256 21.3319 81.3576 21.7971C81.8557 22.4956 81.7603 23.0019 80.9483 23.5509C80.5752 23.0266 80.2366 22.4743 79.8208 21.9861C79.1436 21.1889 78.5272 21.3483 77.8861 22.2869C77.0824 23.4638 76.1751 24.5667 75.3318 25.7156C74.8716 26.3435 74.4525 26.9994 73.9955 27.67C74.2437 28.1828 74.4623 28.6381 74.6464 29.0195C75.6934 29.0934 76.6287 29.1576 77.5525 29.2233V32.0291C76.9706 33.0827 76.4348 34.0541 75.917 34.991C74.8831 35.2261 73.8689 35.4578 72.8515 35.6912C72.1414 37.7015 69.8928 37.5026 68.6469 38.8208C68.4858 39.3107 68.305 39.8646 68.1045 40.4793C68.7718 41.293 69.4589 42.1296 70.1739 43.0008C70.3564 42.797 70.5174 42.6178 70.6292 42.4912C71.4182 42.8331 71.2604 44.2516 72.4159 44.0725C73.3052 43.936 74.1582 43.5646 75.2891 43.2177C75.3483 43.7322 75.4157 44.3108 75.4896 44.9403C73.2312 44.7036 71.4626 45.3858 69.3932 46.6021C70.9497 47.4108 72.1677 48.0453 73.2838 48.6239C72.8992 48.9132 72.3584 49.3208 71.7929 49.7465C72.5918 50.7607 73.4597 51.6285 74.8502 51.4905C75.0212 51.0993 75.179 50.736 75.345 50.353C75.8217 50.6703 76.1849 50.9119 76.5383 51.1486C77.0199 50.7163 77.4095 50.3662 77.799 50.0161C78.3513 50.2298 78.8444 50.067 79.3244 50.0983C80.0164 50.1443 80.6985 50.3333 81.4842 50.4796C82.5641 51.9737 85.5721 52.3846 84.4609 55.3975C85.0937 55.8643 85.669 56.2901 86.3446 56.7897C86.3347 57.8302 87.6185 58.9282 86.3512 60.0969C86.7309 60.3138 87.1582 60.5588 87.722 60.8809C87.4048 61.116 87.2092 61.2606 87.0136 61.4053C87.3768 61.8178 87.7253 62.214 88.0146 62.5427C88.0672 63.1706 88.1116 63.6949 88.1445 64.0812C88.5669 64.3919 88.8743 64.6187 88.8874 64.6269V67.3456C89.2211 67.0514 89.438 66.8607 89.867 66.4843C90.0889 67.4688 90.2582 68.2151 90.393 68.8134C92.1189 70.0988 92.5611 71.9709 92.8389 74.088C92.2208 73.6919 91.6028 73.2958 90.8105 72.7878C90.6938 72.7813 90.3618 72.778 90.0347 72.7369C89.7503 72.7007 89.4709 72.6186 89.1372 72.5446C89.1372 73.207 89.2901 73.7642 89.111 74.1768C88.3384 75.947 88.3187 76.0473 89.6813 77.599C90.2698 77.3245 90.9026 77.0302 91.2921 76.8494C91.8263 76.2215 90.8582 75.4013 92.0121 75.2468C92.7945 76.6768 93.1183 78.194 92.6597 79.6749C91.7836 80.0941 90.9798 80.4787 90.1711 80.865C90.3832 81.2743 90.5278 81.5537 90.6692 81.8298C91.5338 81.8939 92.3687 81.9564 93.3451 82.0287C93.1972 82.4873 93.1199 82.7782 92.9999 83.0511C92.9819 83.0938 92.7616 83.0462 92.635 83.0396C92.6153 82.8259 92.5956 82.6122 92.5676 82.2934C91.8428 82.5169 91.2346 82.7043 90.5886 82.9032C90.4933 83.4752 90.3996 84.0324 90.3076 84.5847C90.6018 84.6751 90.8483 84.749 91.108 84.8279V85.4772C91.4581 85.4016 91.7211 85.3441 91.9858 85.2865C92.0663 85.4131 92.1469 85.5397 92.2274 85.6662C91.8198 86.0804 91.4121 86.4947 91.0012 86.9105C91.3267 87.0486 91.6406 87.1817 92.0318 87.3461C91.5666 87.7521 91.2001 88.0726 91.1212 88.1416C91.3447 89.5026 91.4351 90.5562 91.7047 91.5622C91.9841 92.5977 91.9759 93.9225 93.6065 94.0129C93.8234 96.799 95.1384 99.1297 97.0862 100.318C97.696 100.053 98.3419 99.7724 99.1424 99.424V100.862C100.015 101.306 100.839 101.724 101.79 102.207C102.103 99.9532 102.381 97.9529 102.68 95.7897C102.9 95.3032 103.202 94.6359 103.505 93.9669C103.868 93.911 104.251 93.8518 104.59 93.8009C104.437 92.4958 104.294 91.2893 104.151 90.0828C105.471 90.2998 105.435 89.1229 105.865 88.3471C106.505 88.3175 107.157 88.2879 107.866 88.2551C107.964 87.7521 108.048 87.3214 108.119 86.9631C108.505 87.1735 108.876 87.374 109.657 87.7981C109.946 87.3116 110.135 86.5308 110.558 86.3747C111.498 86.0262 111.868 85.4525 112.103 84.5419C112.714 82.1651 114.703 81.0967 116.727 80.4015C120.019 79.2706 120.044 79.3791 122.2 77.6499C122.841 77.1371 123.635 76.8166 124.352 76.4122C124.441 75.9849 124.529 75.5624 124.626 75.0989C123.73 74.7241 122.897 74.3757 122.036 74.0141C121.566 74.277 121.069 74.5548 120.829 74.6896H120.834Z" fill="#E1DFDF"/>
<path d="M110.446 194.328C107.974 194.783 107.164 192.191 105.469 191.647C103.919 191.519 102.617 191.412 101.018 191.279C100.929 191.331 100.564 191.553 100.153 191.8C100.045 191.27 99.9544 190.828 99.8098 190.118C97.6795 189.549 95.4983 188.968 93.2744 188.373C93.2695 188.277 93.1856 188.042 93.2629 187.888C93.4667 187.487 93.7429 187.122 93.9122 186.864C93.4026 186.02 92.7714 185.314 92.5364 184.493C92.2718 183.573 91.6965 183.152 91.0143 182.592C89.4577 181.31 87.6612 181.617 85.9402 181.508C84.5645 180.427 83.2232 179.372 81.8228 178.27C81.3494 177.836 80.8152 177.347 80.2925 176.867C80.4799 176.702 80.7922 176.426 81.351 175.935C78.5387 176.789 76.0172 176.727 73.4284 176.211C72.978 175.859 72.4669 175.461 72.0559 175.141C70.9431 175.233 70.0177 176.326 69.0808 175.341C69.26 175.003 69.3948 174.748 69.5904 174.376C67.9648 175.078 66.5512 175.688 65.3053 176.226C64.6445 177.246 64.0626 178.144 63.4808 179.043C62.3795 178.32 61.6086 176.914 60.0849 177.856C60.4909 177.917 60.8886 177.976 61.2059 178.022C61.7631 178.969 62.2529 179.801 62.8282 180.779C62.8759 181.771 62.9318 182.948 63.0024 184.439C62.3499 185.167 61.3949 186.053 60.6651 187.097C59.8564 188.253 58.5234 189.285 59.3501 190.868C59.6411 191.188 59.9337 191.507 60.218 191.819C59.4948 192.437 58.9606 192.894 58.4971 193.29C58.7075 194.089 58.8718 194.714 59.0362 195.337C60.6207 196.44 63.7848 202.092 64.2303 204.762C65.0866 205.434 65.9578 206.549 67.0673 206.892C68.7307 207.407 69.6972 208.569 70.3547 209.21C72.1545 212.306 70.8199 214.959 70.7656 217.571C70.7114 220.199 69.8057 222.81 69.2748 225.43C69.5411 226.206 69.7958 227.026 69.6233 227.741C69.2107 229.445 68.757 231.178 68.0141 232.754C67.3237 234.219 67.0065 235.571 67.4766 236.52C67.1873 238.062 66.9933 239.095 66.7977 240.133C67.4865 240.253 67.8629 240.317 68.5894 240.442C67.9664 240.675 67.7281 240.765 67.3747 240.899C68.6272 241.974 67.8497 243.219 67.7297 244.423C67.9319 244.58 68.1341 244.738 68.2179 244.802C67.7938 245.84 67.3862 246.836 66.9325 247.95C66.612 247.657 66.3178 247.388 65.9463 247.051C65.731 247.473 65.5633 247.804 65.4368 248.055C66.0712 248.997 66.663 249.871 67.2826 250.79C66.8931 250.886 66.5775 250.963 66.3096 251.029C66.257 252.191 67.1725 253.312 66.1978 254.286C65.7178 254.157 65.3874 254.068 64.8648 253.928C65.325 254.515 65.6324 254.911 65.8493 255.187C66.3424 255.148 66.7172 255.118 67.3089 255.072C66.9999 255.506 66.8175 255.763 66.6843 255.95C66.9457 256.458 67.1709 256.897 67.3517 257.245C67.5506 256.902 67.6952 256.65 67.8415 256.397C67.9812 256.515 68.1209 256.634 68.2606 256.754C68.2212 257.038 68.1801 257.324 68.1308 257.676C68.831 258.144 69.5542 258.629 70.3136 259.137C70.6144 259.744 70.9333 260.386 71.2867 261.103C70.9497 261.701 70.5996 262.323 70.2364 262.97C71.0714 263.064 71.8932 263.156 72.7003 263.245C72.9271 263.552 73.1539 263.861 73.4103 264.209C73.9182 263.858 74.3604 263.554 74.653 263.35H76.5399C75.5028 262.648 74.7023 262.104 73.9445 261.591C73.3742 260.572 72.8268 259.594 72.1907 258.458C72.2252 258.427 72.4504 258.221 72.5474 258.134C72.3222 257.12 72.1167 256.192 71.9244 255.319C72.5573 254.786 73.0043 254.411 73.4514 254.035C73.389 253.994 73.3265 253.951 73.264 253.91C74.2108 252.546 75.1576 251.183 76.1142 249.804C75.2513 248.981 73.7374 249.058 73.813 247.215C74.201 246.873 74.6941 246.204 75.3532 245.918C76.0945 245.596 76.2424 245.065 76.4167 244.441C76.6386 243.644 76.8851 242.855 77.1382 242.005C76.964 241.231 76.77 240.366 76.5284 239.299H79.686C79.9243 238.186 80.1265 237.243 80.3352 236.268C80.7379 236.268 81.07 236.263 81.402 236.268C83.879 236.313 85.5523 235.502 86.4629 232.871C86.7226 232.12 87.3604 231.306 88.0475 230.93C90.5064 229.582 91.3628 226.899 93.1922 225.039C93.9533 224.264 94.4464 223.216 95.0019 222.257C95.209 221.899 95.2978 221.449 95.352 221.03C95.4901 219.981 95.5772 218.927 95.689 217.829C97.3245 216.863 98.8844 215.941 100.424 215.032H102.722C105.837 211.662 106.536 207.538 106.46 203.976C108.193 201.088 110.538 199.502 111.291 196.75C111.015 195.962 110.76 195.232 110.443 194.328H110.446Z" fill="#E1DFDF"/>
<path d="M324.679 218.079C323.594 216.859 322.749 215.908 321.903 214.958C321.965 214.907 322.029 214.856 322.092 214.805C321.692 214.586 321.293 214.368 320.89 214.149C320.469 212.231 319.025 211.254 317.458 210.447C316.16 208.368 316.794 205.306 314.24 204.21C313.785 202.978 313.4 201.938 313.015 200.898C312.864 200.896 312.715 200.894 312.563 200.893C312.382 202.019 312.085 203.143 312.052 204.272C312.008 205.806 311.712 207.239 311.056 208.661H309.47C308.244 207.012 305.615 207.183 304.757 204.893C305.275 204.755 305.75 204.629 306.207 204.507C306.018 203.797 305.839 203.123 305.716 202.661C304.08 202.216 302.678 201.833 301.266 201.448C301.329 201.705 301.389 201.948 301.508 202.428C300.827 202.183 300.28 201.986 299.654 201.76C299.741 202.048 299.81 202.28 299.866 202.464C299.369 202.891 298.888 203.307 298.47 203.667C298.439 204.269 298.414 204.732 298.391 205.183C297.652 205.401 297.078 205.571 296.562 205.723C296.236 205.22 295.936 204.755 295.679 204.359C294.798 204.727 294.082 205.026 293.265 205.367C293.552 206.872 291.705 206.795 291.374 207.862C290.97 207.824 290.628 207.791 290.429 207.773C289.898 208.927 289.445 209.913 289.026 210.824C286.238 211.815 283.588 212.757 280.845 213.733C280.574 214.675 280.286 215.673 280 216.669C280.312 217.938 280.243 219.233 280.523 220.448C280.899 222.085 281.534 223.664 282.076 225.262C282.586 226.764 282.835 228.237 281.714 229.6C282.186 229.948 282.656 230.295 283.115 230.632H285.39C287.007 228.918 289.132 229.125 291.202 229.333C292.251 227.841 293.547 227.157 295.308 227.008C296.904 226.873 298.46 226.275 300.033 225.882C300.441 226.146 300.819 226.6 301.205 226.605C302.655 226.628 303.488 227.419 304.138 228.581C304.465 229.167 304.868 229.713 305.165 230.17C306.028 230.121 305.936 228.507 307.192 229.338V231.201C307.56 230.593 307.787 230.218 308.188 229.557C308.362 230.377 308.324 231.097 308.571 231.214C310.004 231.888 309.596 233.648 310.492 234.426C311.469 235.274 312.861 235.644 314.12 236.244C314.595 235.843 315.086 235.427 315.616 234.98C316.143 235.432 316.58 235.808 316.901 236.084C318.305 235.458 319.59 234.883 321.106 234.207C321.216 233.709 321.304 232.853 321.6 232.074C322.131 230.676 322.508 229.062 323.476 228.04C324.288 227.182 324.505 226.316 324.758 225.351C325.036 224.287 325.246 223.206 325.458 222.251C325.212 221.409 324.924 220.673 324.792 219.909C324.664 219.169 324.697 218.403 324.681 218.079H324.679Z" fill="#E1DFDF"/>
<path d="M42.3623 34.0951C43.4439 33.7828 44.4219 33.5017 45.4393 33.2075C45.4738 33.6858 45.51 34.1789 45.5396 34.58C45.842 34.7345 46.0574 34.8446 46.2743 34.9548C46.2464 35.0238 46.2168 35.0945 46.1889 35.1635C45.6875 35.129 45.1846 35.0961 44.6832 35.0616C44.9199 35.2835 45.1583 35.5038 45.3949 35.7257C44.7588 35.7569 44.1227 35.7881 43.4011 35.8243C44.4695 36.8976 45.2306 37.6636 46.0689 38.5051C45.8815 38.5051 45.7368 38.5084 45.5922 38.5051C45.4262 38.5002 45.2602 38.4903 45.0711 38.4821C45.3933 40.2031 46.7872 40.3247 47.918 40.7225C48.6149 40.4677 49.2215 40.2475 49.8691 40.0108C49.9726 39.47 50.0647 38.9802 50.1271 38.6547C50.5512 38.4624 50.8356 38.3342 51.1873 38.1748C50.903 37.989 50.7501 37.8888 50.5726 37.7737C50.9967 37.3891 51.3796 37.0406 51.7725 36.6839C52.6321 37.8509 51.5407 38.4805 51.2301 39.3138C51.4257 39.7412 51.6147 40.1505 51.7248 40.3921C52.7472 40.8145 53.6249 41.1778 54.5043 41.5411C54.3186 42.2544 54.192 42.7459 54.0539 43.2768C54.4271 43.6105 54.7607 43.908 55.1832 44.2844C54.7131 44.314 54.3317 44.3386 53.8518 44.3682C52.8984 42.3695 51.8415 41.9996 50.6383 42.9941C51.0197 44.0691 51.3895 45.1046 51.6903 45.9544C50.7024 46.4738 49.9365 46.8748 49.2182 47.2529C49.3037 48.2572 49.3628 48.9591 49.3973 49.3552C51.0887 50.9479 51.8152 48.438 53.0924 48.8456C53.0398 49.2483 53.0036 49.5294 52.9642 49.8401H54.6753C54.7985 49.4768 54.8972 49.1842 55.027 48.8013C55.4757 49.1579 55.8817 49.4818 56.2006 49.7365C57.0981 49.4998 57.8805 49.2944 58.7434 49.0675C58.8503 49.6905 58.9242 50.1162 59.0524 50.8575C60.2178 49.7793 61.2369 48.8785 62.1804 47.9055C62.2954 47.7871 62.0045 47.2759 61.9108 46.9751C61.6182 47.2299 61.4013 47.4189 61.0298 47.7411C60.8654 46.8929 60.7471 46.2765 60.6287 45.6618C61.0709 45.1309 61.5048 44.6082 62.0555 43.9458C61.9667 43.2702 61.8615 42.4615 61.7349 41.4934C62.3579 41.6347 62.8395 41.7432 63.3918 41.8681C63.8898 41.5657 64.4438 41.2287 65.1505 40.7981C64.5473 39.0558 66.4885 37.3792 64.8793 35.655C65.3461 35.5465 65.6009 35.4873 65.8508 35.4281C65.8113 35.0731 65.7735 34.7427 65.739 34.437C65.3116 34.3745 64.9418 34.3219 64.5177 34.2595C65.0552 32.8886 66.1088 32.8459 66.7433 32.8837C67.764 32.2427 68.4379 31.8465 69.0823 31.406C69.3502 31.2236 69.7973 30.8833 69.7545 30.7305C69.4324 29.593 70.4811 29.1131 70.8673 28.3487C71.6547 26.7905 72.5949 25.3046 73.5515 23.8401C74.1547 22.9163 74.9026 22.0879 75.5847 21.2167C76.0992 20.4426 77.5637 20.3291 77.0509 18.7495C76.4181 19.0109 75.8559 19.2443 75.3053 19.4711C75.0966 19.1703 74.9404 19.024 74.8845 18.8449C74.8286 18.6641 74.8714 18.452 74.8714 18.2531C76.1611 17.3162 77.0794 16.8708 77.6262 16.9168C79.099 15.449 80.9448 14.2212 81.3212 11.6192C80.5421 11.2296 79.7877 10.8516 79.0464 10.4801C79.2009 10.3765 79.357 10.2714 79.5526 10.1399C78.4037 9.50046 78.6387 7.56911 76.9802 7.44748C76.8635 7.59541 76.7583 7.73184 76.6433 7.87648C76.4986 7.68417 76.3836 7.52966 76.2882 7.4031C76.0187 7.7039 75.7442 8.00962 75.2067 8.60957C75.1426 7.79101 75.1064 7.34557 75.0768 6.96752C73.9542 6.65522 72.8398 6.3462 71.7368 6.03883C71.5051 5.76269 71.2585 5.46847 71.0317 5.20054C68.9919 5.83172 67.0375 5.68379 66.1055 4.98193C65.0388 5.10521 64.1462 5.20876 63.2603 5.31067C62.9085 5.95007 62.5962 6.51715 62.2083 7.22229C61.467 7.08422 60.7175 6.94615 59.9121 6.79657C59.7658 7.16805 59.6261 7.52309 59.4913 7.86662C59.0705 7.94716 58.6727 8.02442 58.321 8.09181C58.5412 8.60629 58.7023 8.98598 58.8798 9.39855H57.5534C57.2263 10.4505 56.9255 11.4121 56.5672 12.5643C55.5086 12.0285 54.6062 11.5732 53.5806 11.0554V13.0361C53.0464 13.1462 52.6075 13.2366 52.259 13.3089C51.9829 14.0749 51.7446 14.734 51.4865 15.4506C51.2958 15.0496 51.1364 14.7159 50.9211 14.2655C50.5085 14.4841 50.16 14.6255 49.8609 14.8375C49.353 15.1992 48.919 15.6775 48.3799 15.975C47.6189 16.3941 46.9137 16.8297 46.5324 17.6499C46.7017 17.9293 46.871 18.2088 47.0091 18.434C47.392 18.1167 47.7783 17.7962 48.1662 17.4757C48.2977 17.5694 48.4292 17.6647 48.5607 17.7584C48.3552 18.3041 48.1498 18.8482 47.9805 19.2952C48.4456 19.7736 48.9223 20.2634 49.5091 20.8666C48.9026 21.0984 48.5656 21.2282 48.0282 21.4337C48.6084 21.9022 49.0752 22.2786 49.6127 22.7109C49.5814 22.867 49.5206 23.1662 49.4516 23.5146C50.0598 24.0883 50.6564 24.6537 51.263 25.2257C51.5933 24.8148 51.7511 24.6175 51.9402 24.3841C52.407 25.0104 52.7505 25.469 52.808 25.5479C54.4468 26.4536 55.65 25.6399 56.8712 25.5528C58.1977 25.4591 59.4584 24.4482 60.6797 23.8697C60.5909 23.4834 60.5268 23.1974 60.3575 22.4594C61.1712 23.2056 61.6297 23.6264 62.1344 24.0883C61.4243 24.4844 60.7011 24.6422 60.4348 25.0794C59.5242 26.5686 57.9955 26.8957 56.5589 27.3444C56.5047 27.9888 57.3709 28.5969 56.4094 29.1821C56.0888 28.7745 55.7815 28.3849 55.5645 28.1088C54.5043 27.9247 53.6151 27.7718 52.6058 27.5959V29.358C52.9231 29.4829 53.2025 29.593 53.6874 29.7837C53.0414 29.9234 52.6042 30.0171 52.0634 30.1321C52.31 30.7337 52.5302 31.2745 52.8376 32.0273C51.1347 31.5359 51.8695 30.2883 51.5868 29.5601C51.2284 29.3103 50.926 29.0983 50.6235 28.8879C50.7583 28.8057 50.8931 28.7235 51.0295 28.6413C51.0986 28.0841 51.166 27.5269 51.235 26.9713C49.994 26.5242 48.901 26.1297 47.7076 25.6991C47.2753 24.4499 46.8611 23.0758 46.3236 21.7542C45.9423 20.8173 45.2174 20.1648 44.1572 20.0152C44.0537 20.0004 43.9321 20.1155 43.5787 20.288C43.8729 20.7401 44.1474 21.1625 44.4531 21.6326C44.2641 21.9794 44.0537 22.3673 43.8647 22.7158C43.434 22.6714 43.0921 22.6369 42.4872 22.5761C42.6105 23.3174 42.6993 23.8565 42.7782 24.3283C42.3245 25.4838 41.884 26.6081 41.4451 27.7274C41.7952 27.9132 42.1454 28.0973 42.7059 28.3931C41.9843 28.5032 41.5454 28.5706 40.98 28.6578C41.4501 30.502 41.8824 32.195 42.3673 34.1L42.3623 34.0951Z" fill="#E1DFDF"/>
<path d="M72.6719 73.0967C71.9832 72.9011 71.3603 72.7219 70.7143 72.5378C70.162 71.6847 69.6114 70.8366 68.9605 69.8323C68.5232 70.1281 68.1468 70.3846 67.7622 70.6443C66.3848 69.6334 65.438 68.1656 65.1454 66.4923C63.9012 66.4265 63.2716 65.7296 63.5461 64.4393C62.5254 64.3686 61.6772 64.3095 60.9162 64.2569C60.433 63.4104 60.0187 62.6871 59.6506 62.0428C58.0759 62.1365 56.7231 61.1651 55.2981 62.6805C54.0768 63.9774 53.4818 65.1412 53.7694 66.8227C53.9535 66.8407 54.1376 66.8572 54.3677 66.8769V67.4193C53.6724 67.9979 53.2138 68.3809 52.6155 68.8789C52.4314 67.5196 52.2753 66.3706 52.0945 65.0425C52.2917 64.5429 52.5038 63.841 52.8407 63.2065C53.1645 62.5951 53.6182 62.0527 54.0472 61.433C51.5833 60.9596 49.7917 62.1316 49.3364 64.5429C48.9747 66.4561 48.7841 68.4006 48.5112 70.3796C49.5616 70.6607 50.3703 70.8777 51.6014 71.208C50.5543 71.6699 49.9708 71.928 49.3758 72.1893C49.6898 73.2577 50.2913 73.9251 51.4945 73.8939C51.8003 73.8856 52.1635 73.9563 52.4101 74.124C53.6346 74.959 54.971 75.2022 56.401 75.0609C56.4634 74.7453 56.5062 74.4971 56.5703 74.2538C56.5801 74.2144 56.6853 74.1996 56.8234 74.142C57.7143 74.8718 59.335 74.2949 59.93 75.8844C60.6614 75.3633 61.3649 74.8603 62.0931 74.3426C62.7917 75.1579 63.482 75.9649 64.1724 76.7703C64.0179 76.8361 63.865 76.9002 63.7105 76.9659C63.7549 77.5363 63.7877 78.1066 63.8535 78.6737C63.865 78.7756 64.0179 78.8628 64.1461 79.0008C64.465 78.8217 64.7937 78.6359 65.1093 78.4584C67.2839 79.7158 68.4476 81.6094 68.8043 83.9812C68.0186 85.0562 67.2527 86.0999 66.5163 87.1075C66.8286 87.6582 67.1047 88.1464 67.4384 88.7348C65.9262 89.2575 64.6556 90.0465 63.173 89.0652C62.7177 89.795 62.3232 90.4294 61.8942 91.1165C62.8673 92.0123 63.4656 92.0156 64.3104 91.511C64.9203 91.1477 65.7963 91.2316 66.7218 91.0902C67.6126 91.9417 68.6268 92.9081 69.6508 93.8862C69.5933 94.1574 69.5341 94.445 69.4848 94.6768C70.4776 95.3458 71.3225 96.0394 72.2742 96.521C73.2834 97.0338 74.3945 97.3478 75.4613 97.7488C75.5237 97.6469 75.5862 97.545 75.6503 97.4447C74.7677 96.4898 73.885 95.5348 72.9711 94.5453C73.2933 94.3562 73.6105 94.1705 73.9162 93.9913C74.8268 94.5288 75.7062 95.0466 76.5856 95.5644C76.7089 95.4789 76.8321 95.3951 76.9554 95.3096C76.8025 94.7195 76.4245 94.0785 76.5445 93.5525C76.8009 92.4298 76.2897 91.8315 75.6191 91.0458C74.7956 90.081 74.1743 88.8959 73.6779 87.7157C73.216 86.621 73.5677 86.1115 74.6509 85.6463C75.3397 86.2512 76.0152 86.8429 76.7434 87.4823C76.6037 88.457 76.9784 89.218 78.2161 89.578C78.3558 89.0685 78.4791 88.6165 78.5646 88.3058C78.9804 88.1874 79.2188 88.1201 79.4867 88.0444C79.5475 87.4626 79.6001 86.9432 79.6248 86.7114C80.1097 86.0868 80.4335 85.6709 80.5814 85.4803C79.4768 84.7308 78.2243 84.3248 77.8397 83.5095C77.3072 82.3786 76.5971 82.1847 75.675 82.0154C74.6329 81.1508 73.5152 80.398 72.4172 79.6172C72.2314 79.4857 72.1312 79.2359 71.9471 78.9811C72.4089 78.774 72.7558 78.6195 73.1092 78.4633C73.0829 78.151 73.0582 77.865 73.0385 77.6316C73.2702 77.5511 73.456 77.487 73.4856 77.4755C73.2012 75.9501 72.9415 74.548 72.6719 73.0967Z" fill="#E1DFDF"/>
<path d="M34.7735 78.0968C34.9412 77.8847 34.9576 77.5527 35.0694 77.1927C34.545 77.2289 34.1144 77.2585 33.6854 77.2881C33.6657 77.1763 33.6459 77.0662 33.6262 76.9544C34.3823 76.601 35.1384 76.246 36.0112 75.8383C36.0013 75.6197 35.9833 75.245 35.9701 74.9425C34.2278 74.0056 32.52 73.2413 31.8461 71.3346C32.6499 68.9973 30.4785 67.153 30.8451 64.7089C29.9986 64.2125 29.1554 63.7177 28.3121 63.2229C28.1691 63.3117 28.0261 63.3988 27.8831 63.4876C28.128 65.2283 28.3729 66.9689 28.6162 68.6965C28.3368 68.7984 28.0886 68.8888 27.8404 68.9775C27.1944 67.7332 27.681 65.9318 25.9584 65.1099C25.4061 65.7016 24.8998 66.2457 24.2571 66.9377C24.0977 66.2095 23.9876 65.7132 23.8462 65.0688C22.9011 64.9373 21.9592 64.8075 21.1867 64.7006C21.0437 64.099 20.9303 63.6224 20.7955 63.0586C20.3681 63.2492 20.2005 63.3544 20.018 63.3972C19.7928 63.4498 19.5562 63.4481 19.3014 63.4728C19.3923 62.3595 18.5727 61.0314 16.8424 59.4885C16.4085 59.6545 15.8809 59.855 15.4601 60.0177C14.5445 59.4474 13.6257 58.8737 12.794 58.356C11.5678 58.568 10.4813 58.7554 9.16306 58.9839C9.45564 59.8994 9.72356 60.7426 9.97011 61.5168C9.27647 63.7374 8.58941 65.9334 7.90234 68.1294C9.50988 68.611 10.3334 69.9062 10.8906 71.3642C11.7979 70.8415 12.6247 70.3648 13.4498 69.8898C13.3709 69.8487 13.292 69.8076 13.2131 69.7665C13.9676 68.3085 14.7204 66.8489 15.4272 65.4797C16.0699 65.0968 16.5991 64.7828 17.1268 64.4689C16.9903 65.3203 16.1833 66.1241 16.3427 66.6057C16.7405 67.799 15.2316 68.0571 15.488 69.1255C16.3082 69.6399 17.2024 70.2004 18.1409 70.7889C17.5048 71.1538 16.9772 71.4579 16.4003 71.7883C16.7126 72.3389 16.9295 72.7186 17.232 73.2495C18.4105 73.0818 19.5759 72.9421 20.733 72.7465C21.956 72.5411 22.671 73.0572 22.6841 74.2933C20.9221 74.5447 18.971 73.953 17.2714 75.3633C17.9059 76.1342 18.5141 76.8706 19.137 77.6267H21.5648C21.6897 78.4058 21.7916 79.0402 21.9132 79.7996C22.6134 79.8374 23.2134 79.9821 23.7706 79.8802C26.0011 79.4709 28.1741 78.8857 29.8128 77.362C30.2928 77.6661 30.7218 77.9357 31.0473 78.1428C31.0012 78.5225 30.9651 78.8167 30.9289 79.1011C31.2527 78.8726 31.5765 78.6458 31.874 78.4354C33.1331 79.2819 33.904 79.1915 34.7719 78.0984L34.7735 78.0968Z" fill="#E1DFDF"/>
<path d="M30.9314 79.0981C30.9064 79.1164 30.8798 79.1347 30.8549 79.153C30.8532 79.163 30.8532 79.1713 30.8516 79.1813C30.8732 79.1913 30.8965 79.2029 30.9181 79.2129C30.9231 79.1747 30.9281 79.1364 30.9314 79.0981Z" fill="#E1DFDF"/>
<path d="M163.247 38.4593H165.947C165.747 38.8044 165.571 39.1102 165.387 39.4291C165.65 39.7446 165.891 40.0323 166.289 40.5073C166.733 39.5622 167.08 38.8225 167.489 37.9514C168.212 38.2505 168.942 38.5546 169.938 38.9672C168.651 39.9945 167.65 40.795 166.513 41.7039V42.4173C166.919 42.6375 167.29 42.8397 167.665 43.0419C167.328 43.6632 167.058 44.1629 166.715 44.7974C167.487 45.5715 168.212 46.2981 169.026 47.115C169.026 47.115 168.965 47.3533 168.894 47.6344C169.22 47.9072 169.56 48.19 169.861 48.4414C170.538 46.8553 170.014 44.8828 171.601 43.5334V41.2749C171.744 41.1911 172.077 40.9971 172.381 40.818V38.3261C173.299 37.9004 174.195 37.4829 175.252 36.9914C174.047 36.1778 173.059 35.5088 171.971 34.7741V32.6521C171.601 32.9923 171.332 33.2422 171.061 33.4904C170.956 33.4394 170.852 33.3885 170.747 33.3359C170.906 32.7491 171.066 32.1623 171.332 31.176C170.891 30.8046 170.208 30.2276 169.328 29.4863C169.124 30.318 168.99 30.8637 168.858 31.4095C168.733 31.9289 168.615 32.4499 168.403 33.3622C168.028 32.3842 167.824 31.8549 167.607 31.2862C167.259 31.5771 167.006 31.7875 166.684 32.0571C166.458 31.5393 166.294 31.1613 166.13 30.7832C165.513 31.038 165.007 31.2484 164.632 31.4045C164.351 31.2089 164.223 31.107 164.08 31.0298C164.057 31.0166 163.978 31.1021 163.925 31.1432C163.031 33.3326 163.035 33.3622 164.488 35.6781V37.5109C164.162 37.7574 163.897 37.9596 163.248 38.4543L163.247 38.4593Z" fill="#E1DFDF"/>
<path d="M50.1012 56.9918C50.1571 57.0691 50.213 57.1447 50.2688 57.222C50.1472 57.4554 50.0256 57.6888 49.8563 58.0126C51.6298 58.698 53.3754 58.0652 55.0799 58.2049C55.4761 57.8696 55.8656 57.5392 56.1188 57.3255C56.6924 57.7118 57.1559 58.0224 57.534 58.2772C58.4002 58.0241 59.1234 57.8104 59.965 57.5638C59.7004 57.2795 59.5426 57.1118 59.3585 56.9146C59.6478 56.7913 59.9239 56.6746 60.2444 56.5382C59.9223 56.4116 59.6363 56.2998 59.3404 56.1848C59.7283 55.6555 60.0982 55.1509 60.4565 54.6627C58.9936 53.2086 57.0069 52.7467 54.4964 53.2771C53.9869 53.5631 53.4773 53.8491 52.9957 54.1203C51.8451 53.9198 50.6239 53.7077 49.6853 53.5434C49.1051 52.7511 48.681 52.1709 48.2208 51.543C48.4608 51.1814 48.7418 50.7589 49.0278 50.3266C48.2865 49.9913 47.6373 49.6988 46.8499 49.3421C47.3003 49.1613 47.5354 49.0659 47.7704 48.9722C47.7737 48.8769 47.777 48.7816 47.7803 48.6879C46.9667 48.6451 46.153 48.6024 44.9844 48.54C44.2398 47.013 42.7391 46.5346 40.9573 46.6316C40.4642 48.1635 41.8515 48.9854 42.2246 50.1754H45.3986C45.609 51.1534 46.2796 52.3747 45.9755 53.2623C45.4577 54.7761 46.1218 55.93 46.2911 57.2713C47.1935 57.4965 48.0055 57.6986 48.7238 57.8778C49.2284 57.5523 49.6623 57.2729 50.0946 56.9935L50.1012 56.9918Z" fill="#E1DFDF"/>
<path d="M258.158 29.9878C258.282 30.0897 258.407 30.1933 258.53 30.2952C258.13 30.9198 257.731 31.5444 257.297 32.2232C257.692 32.4977 258.004 32.7147 258.257 32.8922C258.462 33.7535 258.656 34.5704 258.855 35.412C259.575 35.5369 260.185 35.6421 260.815 35.7506C261.138 36.0448 261.479 36.3555 262.019 36.8486C262.845 36.6678 263.624 36.4968 264.253 36.3604V29.9286C263.44 29.5851 262.729 29.2843 262.019 28.9851C260.708 27.2362 261.372 25.5071 261.996 24.1083C260.568 23.2404 260.598 21.6395 259.611 20.811C259.163 21.3041 258.786 21.8482 258.285 22.2295C257.779 22.6158 257.151 22.841 256.64 23.1056C256.49 23.8749 257.18 24.4748 256.681 25.1849C256.214 25.8506 255.865 26.6001 255.474 27.2954C255.895 27.8526 256.408 28.5331 257.218 29.6065C256.173 29.3895 255.642 29.2794 255.016 29.1479C254.886 29.779 254.771 30.3396 254.621 31.0743C255.229 31.2387 255.89 31.4195 256.381 31.5526C257.098 30.9214 257.629 30.4546 258.16 29.9894L258.158 29.9878Z" fill="#E1DFDF"/>
<path d="M286.064 182.34C285.372 181.77 284.708 181.224 284.05 180.682C282.298 182.182 280.651 183.594 278.963 185.042C278.524 185.131 278.021 185.233 277.507 185.337C277.329 185.835 277.181 186.255 277.02 186.709C276.221 186.556 275.319 185.812 274.811 187.266C275.306 188.517 275.847 189.881 276.438 191.379C277.73 191.588 279.076 191.806 280.677 192.066C280.927 192.209 281.42 192.493 282.111 192.889C283.186 190.781 284.195 188.8 285.285 186.665C284.203 184.627 284.32 183.599 286.065 182.34H286.064Z" fill="#E1DFDF"/>
<path d="M315.752 193.458C312.853 192.125 309.951 190.552 306.801 190.654C306.15 191.257 305.5 191.859 304.825 192.485C304.213 191.93 303.776 191.533 303.355 191.15C302.792 191.272 302.282 191.382 301.409 191.571C303.459 193.203 305.827 193.154 307.772 194.232C308.336 195.261 308.926 196.338 309.347 197.107C310.236 197.714 310.87 198.148 311.589 198.639H313.056C313.773 197.891 314.373 197.263 315.026 196.583C315.967 197.061 316.664 197.415 316.973 197.572C317.848 198.572 318.444 199.254 319.008 199.898C319.753 199.859 320.346 199.828 321.089 199.788C319.911 198.529 318.905 197.452 317.743 196.21C318.221 195.962 318.553 195.789 318.786 195.667C317.664 194.849 316.709 194.152 315.754 193.455L315.752 193.458Z" fill="#E1DFDF"/>
<path d="M18.1212 51.6368C18.6241 51.982 19.0482 52.2729 19.6498 52.6871C18.8575 52.7512 18.3348 52.7939 17.7464 52.84C17.5952 53.5911 17.4522 54.3029 17.2993 55.0688C18.9825 55.9844 20.7149 55.6145 22.5805 55.7066C21.951 56.4577 21.4381 57.0708 20.8842 57.7333C21.3001 58.0916 21.688 58.4285 22.2682 58.9299C23.8675 57.9404 25.4471 56.964 26.693 56.1931C27.8387 56.249 28.6112 56.2868 29.3016 56.3213C30.5672 55.1066 30.9995 53.1588 30.3503 51.6483C29.5449 51.599 28.6984 51.548 27.9307 51.502C27.6316 50.2216 27.3472 49.0102 27.0349 47.6738C26.4514 48.4135 25.932 49.0693 25.3962 49.7498C25.766 50.1805 26.1457 50.621 26.5303 51.0681C26.4432 51.4921 26.366 51.8603 26.2903 52.2285C26.5961 52.6197 26.9002 53.0109 27.482 53.7572C26.149 53.8196 25.194 53.8656 24.3491 53.9051C23.7032 52.7381 23.1098 51.6664 22.5016 50.5684C22.1071 50.6243 21.757 50.6719 21.3264 50.7327C21.0568 50.2002 20.8053 49.7071 20.5144 49.1318C19.4016 49.7367 18.4976 50.4385 18.1212 51.6368Z" fill="#E1DFDF"/>
<path d="M206.251 203.991C205.379 205.554 204.13 206.573 202.393 207.101C201.864 207.262 201.489 207.936 201.086 208.332C201.311 209.481 201.499 210.444 201.729 211.618C199.811 213.383 200.447 215.505 201.292 217.773H204.224C205.333 213.815 206.403 209.997 207.519 206.016C207.495 206.028 207.71 205.929 207.916 205.835C207.672 204.897 207.454 204.047 207.173 202.96C206.739 203.439 206.426 203.677 206.252 203.991H206.251Z" fill="#E1DFDF"/>
<path d="M145.31 113.473C145.877 113.379 146.259 113.316 146.714 113.241C147.053 114.168 147.409 115.147 147.703 115.955C146.98 116.367 146.545 116.617 146.07 116.887C146.824 117.929 146.267 118.489 145.447 118.939C145.925 119.227 146.339 119.477 146.76 119.732C146.329 120.263 145.964 120.711 145.54 121.234C145.899 121.495 146.147 121.676 146.29 121.78C148.081 120.6 150.12 121.129 151.997 120.568C151.923 120.062 151.86 119.64 151.799 119.232C152.141 118.765 152.485 118.297 152.569 118.182C151.895 117.332 151.246 116.671 150.784 115.899C149.673 114.038 148.649 112.123 147.689 110.407C147.988 109.429 148.239 108.606 148.483 107.805C147.672 107.559 147.146 107.399 146.54 107.213C146.801 106.595 146.98 106.175 147.243 105.553C146.369 105.808 145.762 105.986 145.087 106.181C144.161 108.224 144.511 110.105 145.627 111.812C145.512 112.401 145.42 112.879 145.305 113.468L145.31 113.473Z" fill="#E1DFDF"/>
<path d="M171.544 30.8176C172.473 30.9211 173.189 31.0017 173.969 31.0888C173.875 31.4784 173.756 31.9649 173.628 32.4958C174.044 32.8689 174.427 33.2157 174.818 33.5675C175.463 33.4804 176.041 33.4031 176.585 33.3308C176.843 33.6809 177.098 34.0244 177.368 34.3893C178.186 33.9916 178.891 33.6497 179.445 33.3818C180.183 32.3002 180.839 31.3403 181.577 30.262C181.931 27.8409 179.311 28.9043 178.538 27.7521C178.119 28.1285 177.811 28.4046 177.555 28.6348C177.341 28.0003 177.174 27.5023 177.006 27.0059C176.879 27.0108 176.751 27.0157 176.625 27.0207C176.533 27.7965 176.439 28.5723 176.335 29.4336C175.352 28.6265 174.476 27.9082 173.457 27.07C172.833 27.5384 172.167 28.0397 171.417 28.6019C171.623 28.8221 171.881 29.1016 172.142 29.3826C171.98 29.7706 171.815 30.1618 171.541 30.8192L171.544 30.8176Z" fill="#E1DFDF"/>
<path d="M307.323 143.058C306.148 143.352 305.698 144.021 305.482 145.014C305.377 145.048 305.318 145.089 305.26 145.086C302.095 144.887 302.106 144.898 300.027 146.914C299.516 147.408 298.904 147.8 298.349 148.25C298.28 148.306 298.271 148.441 298.214 148.598C298.536 148.557 298.815 148.521 299.264 148.464C298.911 149.322 299.085 150.04 299.734 150.959C300.209 149.968 300.563 149.231 300.763 148.809C302.126 148.248 303.245 147.788 304.417 147.306C304.156 146.782 303.96 146.389 303.763 145.996C303.901 145.932 304.039 145.868 304.177 145.803C304.478 146.322 304.779 146.841 305.219 147.601C305.637 147.086 306.051 146.575 306.515 146.005C306.751 146.075 307.175 146.202 307.244 146.222C308.517 145.719 309.475 145.339 310.496 144.935C310.997 143.151 311.552 141.182 312.217 138.822C312.047 138.513 311.654 137.798 311.263 137.081C309.608 137.457 310.032 138.467 310.236 139.3C309.744 141 309.113 142.609 307.327 143.056L307.323 143.058Z" fill="#E1DFDF"/>
<path d="M215.097 63.021C215.398 61.711 215.639 60.659 215.819 59.8782C217.418 58.08 218.884 56.4281 220.352 54.7778C222.208 53.3347 224.31 52.1479 226.448 51.0319C227.556 50.4533 228.38 49.6742 228.789 48.4874C228.828 48.3724 228.794 48.231 228.794 48.1242C228.699 47.9943 228.639 47.8645 228.539 47.7872C228.39 47.6689 228.21 47.5883 227.882 47.396C225.85 49.0496 224.234 51.7518 221.147 50.9267C220.672 51.377 220.365 51.9178 219.953 52.0181C218.478 52.3731 217.64 53.3971 216.838 54.5477C216.223 55.4287 215.511 56.2424 214.754 57.1974C215.431 59.0778 213.642 60.013 212.783 61.6945C213.499 62.1054 214.173 62.4917 215.095 63.0193L215.097 63.021Z" fill="#E1DFDF"/>
<path d="M271.228 194.599V194.671C271.241 194.677 271.256 194.684 271.269 194.691C271.276 194.664 271.284 194.639 271.291 194.612C271.269 194.607 271.248 194.604 271.226 194.599H271.228Z" fill="#E1DFDF"/>
<path d="M268.387 189.043C268.422 188.803 268.473 188.44 268.499 188.251C266.035 186.291 263.642 184.39 261.091 182.361C260.649 182.335 259.975 182.294 259.301 182.253C259.186 182.404 259.069 182.554 258.954 182.705C259.403 182.986 259.856 183.259 260.297 183.551C262.605 185.08 263.834 187.536 265.215 189.755C266.326 191.54 267.541 193.057 269.296 194.12C269.839 194.449 270.573 194.457 271.229 194.599V191.867C270.2 190.845 269.339 189.99 268.389 189.045L268.387 189.043Z" fill="#E1DFDF"/>
<path d="M44.1458 57.7116C44.4351 56.8733 44.6192 56.3358 44.8016 55.8082C44.3282 55.0636 43.8779 54.3535 43.3963 53.5942C42.1388 53.4199 40.4688 54.8927 39.5911 52.5455V49.4948C38.5063 48.1864 36.9809 49.1973 35.8172 48.6318C35.5542 48.9885 35.2435 49.411 35.1498 49.5392C35.1005 50.4514 35.1383 51.0694 35.0167 51.6562C34.8901 52.271 34.6107 52.8545 34.3921 53.4709C35.2616 53.3986 36.1574 53.3246 37.4132 53.221C36.9924 53.9377 36.8067 54.2533 36.6242 54.5656C36.833 55.0981 37.0368 55.6241 37.2554 56.1813C37.8488 56.0088 38.3205 55.8723 38.7265 55.754C39.0158 55.0784 39.2624 54.5031 39.5319 53.8752C40.2667 54.1777 40.9093 54.4423 41.5109 54.6905C41.4452 55.2937 41.3926 55.7753 41.3268 56.3753C42.2966 56.8339 43.1859 57.2547 44.1474 57.71L44.1458 57.7116Z" fill="#E1DFDF"/>
<path d="M34.6436 64.4163C34.3789 64.7138 34.2491 64.8585 34.0107 65.128C35.5673 66.9492 37.1255 68.7721 38.6854 70.5966C39.4169 69.898 40.0891 69.257 40.6907 68.6801C40.8354 67.8105 40.9636 67.0446 41.1247 66.0847C40.9011 65.7674 40.5625 65.2875 40.2716 64.8749C40.5017 64.676 40.6759 64.5281 40.8863 64.3473C40.3077 64.2191 39.8097 64.1089 39.3741 64.012C39.7851 62.9912 40.1089 62.1891 40.5576 61.0763C39.504 61.267 38.7627 61.4018 37.9803 61.5448C37.6893 61.336 37.3754 61.1125 36.8412 60.7295C36.3579 61.3738 35.8829 62.005 35.3109 62.7677C35.9355 62.9945 36.3316 63.1392 36.5092 63.2033C36.6604 64.03 36.782 64.6941 36.925 65.4748H35.546C35.2715 65.151 34.9739 64.8026 34.6452 64.4163H34.6436Z" fill="#E1DFDF"/>
<path d="M309.787 57.4606C309.713 57.1137 309.655 56.8392 309.623 56.6814C311.421 56.1719 313.26 57.3323 315.05 55.8612C315.262 55.2333 315.543 54.4016 315.828 53.5584C315.155 53.1491 314.626 52.827 314.056 52.4801C313.656 53.3069 313.288 54.0712 312.92 54.8339C312.489 54.3441 312.331 53.9545 312.41 53.6192C312.507 53.2132 312.803 52.8566 312.999 52.5032C312.716 52.0824 312.461 51.7027 312.215 51.3378C311.886 51.397 311.562 51.4545 311.168 51.5268C311.302 52.1925 311.426 52.7974 311.564 53.4713H310.706C309.966 52.4818 309.328 51.6336 308.793 50.917C307.994 51.5449 307.369 52.038 306.876 52.4259C306.96 53.5009 307.027 54.3622 307.119 55.5539C307.653 56.2097 308.099 57.6282 309.784 57.4606H309.787Z" fill="#E1DFDF"/>
<path d="M134.758 89.3844C134.078 88.5428 133.524 87.8541 132.965 87.1621C131.762 87.4218 130.542 87.6865 129.155 87.9856C128.3 88.533 127.255 89.2036 125.961 90.032C126.104 90.7536 126.29 91.6872 126.472 92.6028C127.534 93.0696 128.523 93.5068 129.308 93.852C130.954 92.9118 132.365 92.1064 133.829 91.2714C134.151 90.6155 134.49 89.9285 134.758 89.386V89.3844Z" fill="#E1DFDF"/>
<path d="M47.9857 61.1029C45.6319 59.6663 43.2946 59.5759 42.2229 60.8875C42.3659 61.0059 42.5072 61.1226 42.67 61.2574C41.6755 62.1072 42.0815 63.2758 42.1275 64.2982C42.1752 65.3995 42.5401 66.486 42.8064 67.7746C43.288 67.8009 43.8189 67.8289 44.4698 67.8634C44.2561 66.8344 44.0885 66.0208 43.8995 65.1069C44.6325 65.1431 45.387 65.1825 46.0954 65.217C46.743 63.8084 47.366 62.454 47.9873 61.1012L47.9857 61.1029Z" fill="#E1DFDF"/>
<path d="M31.7834 39.4192C33.506 39.7463 34.7141 39.9748 35.7365 40.1671C36.1376 41.0646 36.4203 41.7007 36.7046 42.3368C37.2175 42.2727 37.5873 42.2267 38.0295 42.1708C37.7517 40.7046 37.5741 39.3453 37.1994 38.0418C37.0728 37.6029 36.4466 37.3071 36.0488 36.9471C35.9765 37.0096 35.9058 37.0704 35.8335 37.1328C35.6905 36.7137 35.5491 36.2946 35.5442 36.2814C34.2884 35.1834 33.3383 34.3533 32.4261 33.5562C31.5199 33.92 31.0328 34.3977 30.9648 34.9895C31.6749 35.9494 32.2913 36.7811 32.9208 37.6325C31.8837 38.2604 31.1325 38.8078 31.7818 39.4192H31.7834Z" fill="#E1DFDF"/>
<path d="M14.4641 52.0939C14.6827 51.8637 14.9111 51.6238 15.1413 51.3805C14.9227 51.2227 14.7238 51.0781 14.2553 50.7395C14.9391 50.6507 15.3599 50.5965 15.5489 50.5718C15.7823 49.6398 15.9993 48.7752 16.2162 47.9123C16.3609 47.9172 16.5072 47.9238 16.6518 47.9287C16.831 48.6815 17.0118 49.4327 17.191 50.1855C17.2978 50.1707 17.4046 50.1559 17.5098 50.1412C17.5904 49.7187 17.6693 49.2979 17.7432 48.9084C18.141 48.7358 18.4829 48.5862 18.9037 48.4038C18.7837 47.6427 18.6719 46.9409 18.5454 46.1437C18.7344 45.879 18.9957 45.5125 19.2965 45.0901C18.9382 44.7153 18.6259 44.3866 18.2758 44.02C18.1591 44.3866 18.0605 44.6923 17.998 44.8879C17.1006 45.0062 16.2557 45.118 15.4963 45.2199C14.2586 47.1135 13.3694 49.127 11.2358 50.1395C11.4939 50.6852 11.7142 51.1487 11.8785 51.4956C12.9371 51.7405 13.6866 51.9147 14.4624 52.0939H14.4641Z" fill="#E1DFDF"/>
<path d="M264.247 41.8307C264.965 41.3326 265.684 40.8346 266.326 40.3908C268.17 40.1557 270.113 40.2938 270.863 37.9976C270.168 37.0343 269.505 36.1172 268.851 35.2098C268.412 35.2904 268.036 35.3611 267.585 35.4432C267.75 34.7743 267.87 34.2877 267.988 33.8028C267.889 33.7223 267.792 33.6401 267.694 33.5596C267.258 33.8801 266.586 34.1119 266.425 34.5359C265.539 36.8766 264.778 39.2665 263.974 41.6383C264.065 41.7024 264.155 41.7666 264.247 41.8307Z" fill="#E1DFDF"/>
<path d="M347.005 239.398C346.44 240.412 345.874 241.428 345.34 242.386C343.412 243.765 341.316 244.878 340.568 247.337C341.601 247.69 342.621 248.039 343.767 248.43C344.528 247.016 345.195 245.779 346.006 244.272C346.091 244.224 346.489 244.007 346.967 243.746C347.084 242.276 349.272 241.564 348.749 240.003C347.986 239.738 347.446 239.551 347.005 239.398Z" fill="#E1DFDF"/>
<path d="M86.8194 119.908C86.5843 120.126 86.2687 120.296 86.1438 120.557C85.2464 122.426 84.3867 124.313 83.5073 126.215C85.3877 126.394 87.2171 126.568 88.7754 126.718C89.3687 127.176 89.755 127.474 90.1528 127.783C90.71 126.509 90.6443 126.19 89.2668 123.384C88.5716 123.443 88.0094 123.491 87.49 123.535C87.2056 122.824 86.964 122.222 86.6731 121.496C86.8292 121.126 87.7004 120.715 86.8194 119.908Z" fill="#E1DFDF"/>
<path d="M212.347 72.3952H215.097C213.184 69.6091 213.1 66.7737 214.213 63.8184H211.944C211.589 65.2615 211.251 66.6389 210.924 67.9736C210.527 68.2185 210.125 68.4684 209.382 68.9286C210.654 69.8474 211.68 70.5887 212.705 71.3301C212.605 71.6243 212.506 71.9201 212.347 72.3968V72.3952Z" fill="#E1DFDF"/>
<path d="M143.461 118.185C143.635 116.722 143.795 115.384 143.953 114.048C144.043 114.055 144.132 114.061 144.222 114.066C144.038 113.655 143.852 113.243 143.678 112.853H141.612C141.441 113.524 141.29 114.117 141.14 114.705C140.609 114.728 140.174 114.748 139.766 114.766C139.743 115.231 139.725 115.616 139.705 115.999C139.802 116.014 139.899 116.029 139.996 116.043C140.319 116.569 140.642 117.095 140.937 117.575C140.289 118.082 139.793 118.468 139.173 118.953C141.109 120.33 141.967 118.05 143.46 118.185H143.461Z" fill="#E1DFDF"/>
<path d="M312.397 130.431C311.896 131.871 311.424 133.225 310.946 134.596C311.723 134.726 312.68 134.887 313.316 134.994C314.271 134.44 315.011 134.012 315.994 133.444C316.03 133.36 316.193 132.972 316.518 132.201C314.066 133.416 313.492 131.217 312.397 130.429V130.431Z" fill="#E1DFDF"/>
<path d="M290.258 189.281C289.575 189.484 288.889 189.686 288.235 189.88C287.863 189.612 287.507 189.354 287.074 189.042C286.713 190.097 286.404 191.004 286.233 191.5C286.613 192.801 286.885 193.731 287.158 194.661C287.262 194.642 287.365 194.622 287.469 194.602C287.536 193.614 287.605 192.626 287.692 191.357C288.447 192.304 288.984 192.98 289.533 193.669C289.704 193.575 289.93 193.452 290.227 193.289C289.887 192.388 289.552 191.499 289.188 190.532C289.57 190.195 289.971 189.84 290.372 189.484C290.334 189.416 290.296 189.349 290.258 189.281Z" fill="#E1DFDF"/>
<path d="M174.678 38.7651C174.866 40.6965 175.03 42.3862 175.191 44.0513C175.569 43.9198 176.136 43.7209 176.731 43.5121C176.85 43.951 176.929 44.2436 177.001 44.5164C178.198 44.0759 177.974 43.0009 178.089 42.4388C177.56 41.6383 177.19 41.0811 176.763 40.4351C176.536 40.3825 176.168 40.2971 175.878 40.2297V38.9081C175.439 38.8555 175.076 38.8128 174.677 38.7651H174.678Z" fill="#E1DFDF"/>
<path d="M40.3228 40.5122C40.3951 41.099 40.4592 41.6217 40.5332 42.2282C41.429 41.8798 42.1276 41.6069 42.6683 41.3965C42.6108 40.5385 42.5664 39.8728 42.5221 39.2022C41.5227 38.4263 40.4822 37.616 39.4418 36.8057C39.307 36.8796 39.1738 36.9552 39.0391 37.0292C39.1459 37.9316 39.2544 38.8323 39.3711 39.8268C39.7031 40.0651 40.0614 40.3232 40.3244 40.5122H40.3228Z" fill="#E1DFDF"/>
<path d="M277.755 196.075C276.507 196.161 275.551 196.45 274.734 196.228C273.529 195.901 272.418 195.224 271.269 194.689C271.205 194.915 271.141 195.14 271.077 195.362C272.045 196.527 272.725 196.918 273.978 197.074C274.941 197.194 275.898 197.369 276.862 197.469C278.14 197.602 279.412 198.232 280.98 197.546C279.645 196.936 278.529 196.427 277.755 196.073V196.075Z" fill="#E1DFDF"/>
<path d="M315.586 239.21C315.859 240.956 316.054 242.491 317.471 243.417C318.055 243.04 318.563 242.712 319.161 242.327C319.301 241.564 319.462 240.682 319.698 239.39C318.635 239.613 317.955 239.756 317.272 239.901C316.774 239.697 316.268 239.49 315.586 239.21Z" fill="#E1DFDF"/>
<path d="M25.8712 43.8985C25.3962 43.1193 25.056 42.5588 24.765 42.0789C25.1381 41.8718 25.5491 41.6449 26.0553 41.3639C25.7973 41.0877 25.6641 40.9447 25.4554 40.7212C24.0632 41.2768 22.7137 41.8159 21.3691 42.3517C22.0316 43.264 22.5986 44.0464 23.1575 44.8173C24.0418 44.5181 24.7075 44.2913 25.8712 43.8968V43.8985Z" fill="#E1DFDF"/>
<path d="M54.917 162.527C57.5732 161.158 59.3944 163.002 61.3176 163.176C61.9734 163.893 62.5421 164.511 63.0237 165.037H65.7835C65.7933 164.92 65.8032 164.805 65.8131 164.688C63.8045 163.663 61.8271 162.571 59.7774 161.638C58.4049 161.013 56.347 161.388 54.9186 162.527H54.917Z" fill="#E1DFDF"/>
<path d="M319.522 57.1431C320.308 57.0921 320.952 57.0494 321.771 56.9968C321.81 56.4314 321.843 55.9695 321.881 55.4205C320.244 55.1312 318.929 54.0957 317.234 54.712C317.387 56.1437 319.205 55.9547 319.521 57.1447L319.522 57.1431Z" fill="#E1DFDF"/>
</g>
</svg>
