<svg width="58" height="76" viewBox="0 0 58 76" fill="none" xmlns="http://www.w3.org/2000/svg">
<path d="M18.203 21.7978C18.203 20.9647 17.5274 20.2891 16.6943 20.2891C15.8612 20.2891 15.1855 20.9647 15.1855 21.7978C15.1855 22.6309 15.8612 23.3065 16.6943 23.3065C17.5274 23.3065 18.203 22.6309 18.203 21.7978Z" fill="#29AB51"/>
<path d="M43.5936 21.7978C43.5936 20.9647 42.918 20.2891 42.0849 20.2891C41.2518 20.2891 40.5762 20.9647 40.5762 21.7978C40.5762 22.6309 41.2518 23.3065 42.0849 23.3065C42.918 23.3065 43.5936 22.6309 43.5936 21.7978Z" fill="#29AB51"/>
<path d="M43.6302 52.565L31.9997 53.3608C31.4775 53.3981 30.9718 53.5266 30.5076 53.7463C30.0226 53.9784 29.5791 54.3059 29.2102 54.7121L21.3848 63.3499L21.6832 35.625L43.6302 52.565Z" fill="#29AB51"/>
<path d="M57.9643 71.0262L57.0856 64.7509L50.6984 19.2404C50.4455 17.4374 48.9036 16.0945 47.0799 16.0945H43.6065V14.1795C43.6065 6.34992 37.2607 0 29.4311 0C25.5184 0 21.9704 1.58748 19.4047 4.15314C16.839 6.71881 15.2516 10.2668 15.2516 14.1795V16.0945H10.9202C9.09645 16.0945 7.55456 17.4374 7.30172 19.2404L0.106253 70.5205L0.0357911 71.0262C-0.270928 73.2271 1.43261 75.1877 3.65425 75.1877H32.3118L30.9481 72.3733L28.4529 67.2171C28.1047 66.4959 28.4073 65.6296 29.1285 65.2815C29.8497 64.9291 30.716 65.2317 31.0683 65.9529L34.0402 72.0997L35.5365 75.1877H39.213L37.5011 71.6479L32.2828 60.8713C31.9346 60.1501 32.2372 59.2797 32.9584 58.9315C33.6796 58.5834 34.5459 58.8859 34.8982 59.6072L40.4771 71.134L42.4377 75.1877H45.9857L43.677 70.4169L39.4368 61.6547C39.0886 60.9335 39.3912 60.0672 40.1124 59.7191C40.8336 59.3709 41.6999 59.6693 42.048 60.3905L46.5162 69.6253L49.2104 75.1877H54.3417C56.5633 75.1877 58.271 73.2271 57.9643 71.0262ZM45.3556 21.7978C45.3556 23.6008 43.8925 25.0681 42.0853 25.0681C40.2782 25.0681 38.8151 23.6008 38.8151 21.7978C38.8151 19.9948 40.2782 18.5234 42.0853 18.5234C43.8925 18.5234 45.3556 19.9906 45.3556 21.7978ZM18.153 14.1795C18.153 7.84621 23.4003 2.71902 29.771 2.90554C35.9054 3.08791 40.7051 8.28142 40.7051 14.4158V16.0945H18.153V14.1795ZM16.694 18.4114C18.5633 18.4114 20.0762 19.9285 20.0762 21.7978C20.0762 23.6671 18.5633 25.18 16.694 25.18C14.8246 25.18 13.3118 23.663 13.3118 21.7978C13.3118 19.9326 14.8246 18.4114 16.694 18.4114ZM46.2095 53.3484C45.882 54.4178 44.9329 55.1763 43.8137 55.2551L32.1874 56.0467C31.8102 56.0757 31.4621 56.2415 31.2092 56.5234L23.3838 65.1571C22.8615 65.7332 22.132 66.0441 21.3859 66.0441C21.0585 66.0441 20.7228 65.9819 20.4036 65.8576C19.3632 65.4514 18.6794 64.44 18.6918 63.3209L18.9902 35.6002C18.9985 34.5764 19.5871 33.6479 20.5072 33.2044C21.4274 32.7568 22.5216 32.8687 23.3299 33.4946L45.2769 50.4346C46.1639 51.1185 46.5328 52.279 46.2095 53.3484Z" fill="url(#paint0_linear_6791_2037)"/>
<path style="mix-blend-mode:soft-light" d="M42.8337 52.4449L31.2033 53.2407C30.681 53.278 30.1753 53.4065 29.7111 53.6262L20.8867 35.5049L42.8337 52.4449Z" fill="url(#paint1_linear_6791_2037)"/>
<defs>
<linearGradient id="paint0_linear_6791_2037" x1="49.1565" y1="8.11563" x2="18.0286" y2="78.802" gradientUnits="userSpaceOnUse">
<stop stop-color="#31E86A"/>
<stop offset="0.52" stop-color="#29AB51"/>
<stop offset="1" stop-color="#279649"/>
</linearGradient>
<linearGradient id="paint1_linear_6791_2037" x1="42.4897" y1="19.8373" x2="21.4297" y2="67.6565" gradientUnits="userSpaceOnUse">
<stop stop-color="white" stop-opacity="0"/>
<stop offset="1" stop-color="white"/>
</linearGradient>
</defs>
</svg>
