<svg width="28" height="28" viewBox="0 0 28 28" fill="none" xmlns="http://www.w3.org/2000/svg">
<g clip-path="url(#clip0_6806_996)">
<path d="M16.5954 19.7508C16.3844 19.8073 16.1659 19.8361 15.9362 19.8232L6.7983 19.4888C5.83746 19.4486 5.03443 18.8155 4.78888 17.8991L3.47553 12.9976C3.22998 12.0812 3.60886 11.1314 4.42088 10.6161L12.1673 5.75753C12.7625 5.38971 13.4817 5.31605 14.1346 5.5578C14.7913 5.81344 15.2645 6.34144 15.4431 7.00793L18.1516 17.1163C18.2262 17.3887 18.2455 17.6733 18.2085 17.9538C18.1715 18.2343 18.0789 18.5052 17.9359 18.7509C17.793 18.9966 17.6026 19.2123 17.3756 19.3856C17.1486 19.5589 16.8895 19.6865 16.6132 19.7609L16.5954 19.7508ZM13.1428 6.86531C13.0724 6.88416 13.0021 6.90301 12.9392 6.94963L5.19644 11.8221C4.92701 11.9985 4.80071 12.3151 4.88257 12.6206L6.19591 17.522C6.27776 17.8275 6.54544 18.0385 6.86696 18.0566L16.0049 18.391C16.2345 18.4039 16.4626 18.2981 16.612 18.1242C16.7577 17.9363 16.8041 17.7155 16.7446 17.4934L14.0323 7.37106C14.0056 7.26228 13.9525 7.16174 13.8776 7.07811C13.8026 6.99448 13.7081 6.93028 13.6021 6.89106C13.4601 6.83836 13.3053 6.8281 13.1569 6.86154L13.1428 6.86531ZM21.9712 11.6729L19.1572 12.4269C18.7632 12.5325 18.3718 12.31 18.2676 11.9212C18.1635 11.5324 18.3912 11.144 18.7851 11.0384L21.5992 10.2844C21.9932 10.1788 22.3846 10.4014 22.4887 10.7901C22.5929 11.1789 22.3652 11.5673 21.9712 11.6729ZM17.8956 10.5327C17.8036 10.5585 17.7073 10.565 17.6129 10.5519C17.5185 10.5388 17.428 10.5062 17.3473 10.4563C16.9915 10.254 16.8762 9.82359 17.0832 9.47049L18.6356 6.82219C18.8426 6.46908 19.2788 6.35221 19.6346 6.55451C19.9904 6.75681 20.1058 7.18725 19.8988 7.54036L18.3463 10.1887C18.2428 10.3652 18.0785 10.4836 17.9097 10.5289L17.8956 10.5327ZM21.6804 16.2155C21.5884 16.2413 21.4921 16.2479 21.3977 16.2347C21.3033 16.2216 21.2128 16.189 21.1321 16.1391L18.4635 14.6219C18.1077 14.4196 17.9923 13.9891 18.1993 13.636C18.4063 13.2829 18.8425 13.1661 19.1983 13.3684L21.8669 14.8856C22.2228 15.0879 22.3381 15.5184 22.1311 15.8715C22.0276 16.048 21.8633 16.1665 21.6944 16.2117L21.6804 16.2155Z" fill="#211F50"/>
<path d="M10.7703 23.3354C9.22253 23.7501 7.62136 22.8398 7.2121 21.3124L6.60938 19.063L8.01641 18.686L8.61913 20.9354C8.82376 21.6991 9.62435 22.1542 10.3982 21.9469C11.1721 21.7395 11.6378 20.945 11.4332 20.1813L11.2844 19.6259L12.6914 19.2489L12.8402 19.8043C13.2495 21.3317 12.318 22.9207 10.7703 23.3354Z" fill="#211F50"/>
</g>
<defs>
<clipPath id="clip0_6806_996">
<rect width="21.85" height="23" fill="white" transform="translate(0 5.6543) rotate(-15)"/>
</clipPath>
</defs>
</svg>
