<svg width="44" height="44" viewBox="0 0 44 44" fill="none" xmlns="http://www.w3.org/2000/svg">
<path d="M17.7443 27.0333C17.1523 26.4985 16.0771 26.5053 15.3016 27.0375C15.1153 27.1653 14.8368 27.1633 14.6931 27.032C14.5508 26.9034 14.5928 26.6903 14.7791 26.5631C14.9668 26.4338 15.2328 26.4338 15.382 26.5693C15.7326 26.3245 16.0805 26.0784 16.4277 25.8309C15.9382 25.3847 15.1483 25.3063 14.4573 25.5655C14.359 25.4755 14.2607 25.3868 14.1617 25.2953C13.8482 25.5133 13.5333 25.7292 13.2178 25.9437C13.3216 26.0378 13.4268 26.1334 13.5326 26.2276C13.1607 26.7192 13.1628 27.3173 13.62 27.7312C13.875 27.9628 14.2174 28.0997 14.5983 28.1395C15.107 28.1945 15.6715 28.0735 16.1115 27.7703C16.2985 27.6432 16.5652 27.6432 16.7082 27.7731C16.8519 27.9037 16.8216 28.1175 16.6346 28.2461C16.4483 28.3747 16.1692 28.3719 16.0255 28.2433C15.6728 28.4805 15.3181 28.7163 14.9606 28.9494C15.4143 29.3605 16.1857 29.465 16.8615 29.2498C16.9839 29.3605 17.1042 29.4726 17.2273 29.5826C17.5442 29.3688 17.8584 29.1543 18.1712 28.9363C18.0524 28.8314 17.935 28.7249 17.8192 28.6167C18.2331 28.1065 18.2152 27.4637 17.7443 27.0333ZM29.647 14.9643C30.0945 14.9643 30.5627 14.7518 30.8948 14.351C31.0364 14.1812 31.2653 14.1489 31.4083 14.2788C31.5527 14.4088 31.5596 14.6563 31.4186 14.8261C31.277 14.9966 31.0364 15.0282 30.8934 14.899C30.6253 15.2159 30.3551 15.5301 30.0835 15.8422C30.5366 16.254 31.2179 16.274 31.7658 15.9426L32.1323 16.2747C32.3729 15.9907 32.6101 15.7061 32.8452 15.4187L32.4939 15.1004C32.7696 14.4665 32.6541 13.7357 32.1845 13.3074C31.5912 12.7712 30.67 12.9155 30.0856 13.6168C29.944 13.7873 29.7033 13.8189 29.5603 13.6897C29.4166 13.559 29.4221 13.3115 29.5617 13.1417C29.7054 12.9726 29.933 12.9382 30.0815 13.0723C30.3461 12.7519 30.6081 12.4274 30.8659 12.1022C30.375 11.6567 29.6868 11.665 29.1327 12.0479L28.835 11.7784C28.6006 12.0658 28.362 12.3511 28.1221 12.6343C28.2273 12.7292 28.3325 12.8255 28.437 12.919C28.1929 13.5274 28.2836 14.2094 28.7422 14.6233C28.998 14.8563 29.3121 14.9698 29.647 14.9643Z" fill="white"/>
<path d="M41.041 21.7889C41.5873 21.1259 42.1154 20.4483 42.625 19.7567C42.4112 18.0434 42.1768 16.3123 41.9196 14.5695L41.8309 14.4897L42.1548 14.0154L41.3435 13.2784C37.3333 9.63806 33.3245 5.99844 29.3143 2.3595L28.2301 1.375L27.4065 2.58294C26.0032 4.63146 24.487 6.6003 22.8649 8.48031C22.9536 8.10356 23.0505 7.71513 23.1564 7.31156C23.5902 5.665 23.0821 4.54712 22.5789 3.90019C21.6418 2.69362 19.8681 2.02813 17.5821 2.02813C11.1004 2.02813 1.72288 7.12525 1.72288 16.3412C1.72288 17.6062 2.56575 18.4903 3.77163 18.4903C4.66194 18.4903 5.69044 17.9926 6.84544 17.006C6.95406 17.3793 7.11769 17.732 7.35694 18.0317C7.81481 18.6065 8.48994 18.9234 9.25856 18.9234C9.43112 18.9234 9.6085 18.9083 9.79069 18.8767C9.8725 19.2734 10.0224 19.6659 10.2616 20.0083C8.026 21.6196 5.70232 23.1051 3.30138 24.4578L1.77581 25.3137L2.99338 26.4193C2.7445 26.5733 2.49494 26.7279 2.24675 26.8778C1.97175 28.1483 1.68094 29.4023 1.375 30.6336C5.77844 34.6321 10.1812 38.6272 14.5839 42.625C18.4172 40.5397 22.1257 38.2326 25.6905 35.7156C25.6919 35.7177 25.6919 35.7204 25.6933 35.7218C26.0246 36.2972 26.565 36.6905 27.3041 36.9002C26.0246 38.3776 25.5647 39.6433 25.9359 40.6766C26.2322 41.4996 26.9947 41.9911 27.9764 41.9911C37.2481 41.9911 42.3754 32.67 42.3754 26.2267C42.3754 24.6902 42.0695 23.3661 41.4906 22.3988C41.359 22.1826 41.2085 21.9786 41.041 21.7889ZM22.3616 10.9594C24.5761 8.536 26.6227 5.98194 28.457 3.29106C32.4672 6.93069 36.4767 10.5696 40.4862 14.2106C38.822 16.6405 37.0037 18.9612 35.0426 21.1585C34.4073 21.2926 33.8071 21.4088 33.2571 21.4981C34.9745 19.6474 36.6018 17.7258 38.0957 15.7121L37.6949 15.3484C37.2515 14.9463 37.1876 14.2264 37.5389 13.7356C37.6448 13.5857 37.7513 13.4379 37.8572 13.2894C35.1835 10.8639 32.5105 8.43631 29.8389 6.01081L29.5206 6.457C29.1686 6.9465 28.5134 7.01456 28.072 6.61238L27.6705 6.25006C25.9655 8.54769 24.0962 10.7326 22.1038 12.8171C22.1636 12.2574 22.2468 11.6407 22.3616 10.9594ZM27.2051 17.699C25.8019 16.4244 23.837 16.1363 22.0791 16.7152C22.0261 16.3694 21.9498 15.6441 21.9849 14.5028C24.0822 12.3938 26.0432 10.1535 27.8561 7.79556C28.5388 8.14962 29.3507 8.07056 29.9502 7.58106L36.4664 13.4956C36.1597 14.2505 36.234 15.136 36.6768 15.8043C35.0955 17.8688 33.3795 19.8385 31.5631 21.7271C30.8013 21.8119 30.0355 21.8567 29.2689 21.8611C29.0496 21.8611 28.8557 21.8556 28.6749 21.8481C28.9217 20.3686 28.4151 18.7969 27.2051 17.699ZM9.40637 17.6461C9.35825 17.6502 9.30463 17.6605 9.25925 17.6605C7.72269 17.6605 7.87325 15.4584 8.03619 14.3921C8.88387 13.5479 9.68138 12.6665 10.5139 11.8333C11.3926 10.9381 12.3159 10.0911 13.3547 9.416C14.3928 8.74638 15.5719 8.27131 16.8499 8.15306C15.5733 8.02106 14.2388 8.35381 13.101 8.99181C11.9487 9.61812 10.9649 10.4858 10.0602 11.3919C9.16163 12.3076 8.33731 13.2756 7.50681 14.2278C6.67013 15.1676 5.84237 16.1109 4.83244 16.8877C4.40825 17.1201 4.05213 17.2267 3.77094 17.2267C3.25875 17.2267 2.992 16.8816 2.992 16.3405C2.992 7.72131 11.9481 3.29037 17.5807 3.29037C20.537 3.29037 22.5789 4.51275 21.9244 6.99188C20.0282 14.1955 20.9 17.3023 20.9 17.3023C20.1575 18.6876 18.7261 19.1379 18.7261 19.1379C17.9461 18.9276 17.1415 18.8224 16.3336 18.8251C14.7153 18.8251 13.5706 19.2266 13.5706 19.2266C12.9656 19.569 12.4981 19.7072 12.1371 19.7072C10.8309 19.7072 10.9299 17.8867 11.0027 17.2563C11.1753 17.1751 11.3431 17.0871 11.5046 16.9922C12.1522 16.6196 12.7242 16.1521 13.2825 15.6942C13.8339 15.2281 14.3701 14.7627 14.938 14.3536C15.5079 13.9508 16.1212 13.6152 16.8486 13.4805C16.6646 13.4478 16.4776 13.4355 16.291 13.4441C15.73 13.4695 15.1669 13.6675 14.6768 13.9336C14.0092 14.2863 13.4324 14.7524 12.8728 15.2109C12.3207 15.6805 11.7858 16.1508 11.2289 16.5832C10.6741 17.0094 10.0891 17.3876 9.40637 17.6461ZM23.3234 31.7453C20.9604 33.4627 18.5004 35.0425 15.9555 36.4767C11.946 32.8357 7.93719 29.1988 3.927 25.5571C6.47755 24.1201 8.94291 22.5369 11.3108 20.8154C11.5686 20.911 11.8443 20.9715 12.1378 20.9715C12.4389 20.9715 12.7545 20.9193 13.0872 20.8175C11.1862 22.2544 9.21672 23.5984 7.18575 24.8449C7.31912 24.9666 7.45388 25.0882 7.58656 25.2106C8.02794 25.6114 7.95438 26.2047 7.41538 26.5231C7.25038 26.6193 7.08675 26.7163 6.92312 26.8111L14.9421 34.0911C15.1071 33.9948 15.2701 33.8999 15.4344 33.8009C15.9741 33.4833 16.7681 33.5424 17.2102 33.9433L17.611 34.309C19.7035 33.0225 21.7307 31.6328 23.6851 30.1448C23.4238 30.7244 23.3042 31.2592 23.3234 31.7453ZM24.1436 28.4488C22.0821 30.0839 19.9354 31.6088 17.7127 33.0172C16.9757 32.6164 15.9995 32.5497 15.1711 32.8288L8.65425 26.9142C9.19187 26.3704 9.27919 25.6321 8.89075 25.0119C11.2677 23.5081 13.5582 21.8718 15.7513 20.1108C15.9369 20.0977 16.1294 20.0887 16.3343 20.0887C17.0288 20.0864 17.7205 20.1763 18.3913 20.3562L18.5089 20.3885C18.1706 21.8116 18.5756 23.3117 19.7986 24.4221C20.922 25.4409 22.4943 25.9084 24.0192 25.7902C24.2399 26.7987 24.2275 27.7324 24.1436 28.4488ZM27.9757 40.7282C27.1308 40.7282 26.7692 40.0847 27.4347 38.8871C28.215 37.8895 29.1603 37.0686 30.1015 36.2416C31.0592 35.4166 32.0327 34.5957 32.9546 33.7033C33.8649 32.8041 34.7387 31.8271 35.3684 30.6811C36.0099 29.5501 36.3454 28.2233 36.2127 26.9541C36.0931 28.2246 35.6166 29.3975 34.9422 30.4301C34.2629 31.4621 33.4104 32.3799 32.5105 33.2537C31.6724 34.0801 30.7863 34.8727 29.9379 35.7149C29.6106 35.7644 29.1789 35.8126 28.7348 35.8126C27.6808 35.8126 26.5684 35.5382 26.6585 34.3661C26.9184 33.6813 27.3013 33.0956 27.7317 32.5394C28.1669 31.9859 28.6399 31.4545 29.1122 30.9059C29.5742 30.349 30.0431 29.7756 30.3971 29.1129C30.7533 28.4632 30.9891 27.6849 30.8529 26.9541C30.7182 27.6774 30.3806 28.2872 29.9757 28.8537C29.5646 29.4181 29.0964 29.9516 28.6261 30.5002C28.1662 31.0557 27.6953 31.6243 27.3213 32.2678C27.2249 32.4295 27.1365 32.5959 27.0566 32.7663C26.8461 32.7899 26.6345 32.8023 26.4227 32.8034C25.3488 32.8034 23.7896 32.4603 25.0738 30.2129C25.0738 30.2129 25.9194 27.8293 25.1632 25.0883C25.1632 25.0883 25.6156 23.6651 27.0084 22.9268C27.0084 22.9268 27.7255 23.1254 29.2689 23.1254C30.9478 23.1254 33.605 22.8903 37.3814 21.9079C37.6705 21.8299 37.9683 21.7891 38.2676 21.7862C44.3094 21.7862 40.6223 40.7282 27.9757 40.7282Z" fill="white"/>
</svg>
