<svg width="20" height="19" viewBox="0 0 20 19" fill="none" xmlns="http://www.w3.org/2000/svg">
<path d="M17.6964 12.9038H14.2709C13.798 12.9038 13.4146 13.2872 13.4146 13.7602V17.1856C13.4146 17.6585 13.798 18.0419 14.2709 18.0419H17.6964C18.1693 18.0419 18.5527 17.6585 18.5527 17.1856V13.7602C18.5527 13.2872 18.1693 12.9038 17.6964 12.9038Z" stroke="#202020" stroke-opacity="0.8" stroke-width="1.48435" stroke-linecap="round" stroke-linejoin="round"/>
<path d="M5.70718 12.9038H2.28177C1.80882 12.9038 1.42542 13.2872 1.42542 13.7602V17.1856C1.42542 17.6585 1.80882 18.0419 2.28177 18.0419H5.70718C6.18014 18.0419 6.56354 17.6585 6.56354 17.1856V13.7602C6.56354 13.2872 6.18014 12.9038 5.70718 12.9038Z" stroke="#202020" stroke-opacity="0.8" stroke-width="1.48435" stroke-linecap="round" stroke-linejoin="round"/>
<path d="M11.7018 0.915039H8.27634C7.80339 0.915039 7.41998 1.29844 7.41998 1.77139V5.19681C7.41998 5.66976 7.80339 6.05316 8.27634 6.05316H11.7018C12.1747 6.05316 12.5581 5.66976 12.5581 5.19681V1.77139C12.5581 1.29844 12.1747 0.915039 11.7018 0.915039Z" stroke="#202020" stroke-opacity="0.8" stroke-width="1.48435" stroke-linecap="round" stroke-linejoin="round"/>
<path d="M3.99438 12.9041V10.335C3.99438 10.1079 4.08461 9.89006 4.24521 9.72946C4.4058 9.56886 4.62362 9.47864 4.85074 9.47864H15.127C15.3541 9.47864 15.5719 9.56886 15.7325 9.72946C15.8931 9.89006 15.9833 10.1079 15.9833 10.335V12.9041M9.98886 9.47864V6.05322" stroke="#202020" stroke-opacity="0.8" stroke-width="1.48435" stroke-linecap="round" stroke-linejoin="round"/>
</svg>
