<svg width="309" height="92" viewBox="0 0 309 92" fill="none" xmlns="http://www.w3.org/2000/svg">
<path fill-rule="evenodd" clip-rule="evenodd" d="M-32.4358 -173.877C-34.1568 -152.919 -34.921 -125.11 -23.4106 -100.14C-19.4289 -91.5021 -13.9823 -83.2113 -6.60836 -75.6637C-3.535 -69.7879 0.270131 -64.107 4.9587 -58.7509C7.39803 -53.6218 10.3635 -48.6213 13.9528 -43.8329C14.428 -42.6828 14.9276 -41.5376 15.4527 -40.3984C16.4302 -38.278 17.4958 -36.1785 18.6567 -34.1058C18.0777 -15.7936 19.5975 5.37293 28.5611 24.8184C40.0834 49.8146 63.8743 71.9059 111.135 81.4873C166.173 92.6455 198.772 77.4377 223.861 65.7333C226.19 64.6469 228.454 63.5908 230.665 62.5886C243.686 56.6876 254.823 52.6895 266.57 55.3574C278.312 58.0241 290.73 67.3692 306.259 88.3487L306.685 87.9964C291.124 66.9751 278.598 57.492 266.66 54.7806C254.726 52.0704 243.447 56.1445 230.429 62.0438C228.216 63.0468 225.952 64.1033 223.623 65.1896C198.55 76.8857 166.081 92.0319 111.212 80.908C64.0878 71.3541 40.4766 49.3601 29.0533 24.5783C20.2894 5.56605 18.6808 -15.123 19.1818 -33.1813C19.3365 -32.9127 19.4928 -32.6446 19.6508 -32.3771C20.0288 -31.2202 20.4288 -30.0664 20.8518 -28.9166C21.7961 -15.7864 24.464 -2.06706 30.4359 10.8884C41.9581 35.8846 65.7491 57.9758 113.01 67.5572C168.048 78.7155 200.647 63.5076 225.736 51.8033L225.741 51.801L225.748 51.7977C228.072 50.7133 230.332 49.659 232.54 48.6586C245.561 42.7575 256.698 38.7594 268.445 41.4273C280.187 44.094 292.604 53.4392 308.134 74.4186L308.56 74.0663C292.999 53.0451 280.473 43.5619 268.535 40.8506C256.601 38.1404 245.321 42.2145 232.304 48.1137C230.091 49.1167 227.826 50.1732 225.498 51.2596C200.425 62.9557 167.956 78.1019 113.087 66.9779C65.9626 57.4241 42.3514 35.43 30.928 10.6483C25.2737 -1.61816 22.5978 -14.5826 21.5454 -27.0881C21.583 -26.9919 21.6208 -26.8957 21.6587 -26.7995C23.2079 -19.3731 25.504 -11.9508 28.817 -4.76358C40.3392 20.2326 64.1302 42.3238 111.391 51.9053C166.429 63.0635 199.028 47.8557 224.117 36.1513C226.445 35.0649 228.709 34.0087 230.921 33.0066C243.942 27.1055 255.079 23.1075 266.826 25.7753C278.568 28.442 290.986 37.7872 306.515 58.7667L306.941 58.4143C291.38 37.3931 278.854 27.91 266.916 25.1986C254.982 22.4884 243.702 26.5625 230.685 32.4618C228.472 33.4648 226.207 34.5213 223.879 35.6076C198.806 47.3037 166.337 62.4499 111.468 51.3259C64.3437 41.7721 40.7325 19.7781 29.3091 -5.00368C26.4686 -11.1658 24.3798 -17.5041 22.8708 -23.8719C23.1478 -23.2335 23.4325 -22.5967 23.7252 -21.9618C35.2474 3.03434 59.0384 25.1256 106.299 34.707C161.337 45.8653 193.936 30.6574 219.025 18.953C221.354 17.8667 223.618 16.8105 225.829 15.8083C238.85 9.90729 249.988 5.90921 261.734 8.57707C273.476 11.2438 285.894 20.5889 301.423 41.5684L301.849 41.2161C286.289 20.1949 273.763 10.7117 261.824 8.00032C249.89 5.29014 238.611 9.36423 225.594 15.2635C223.383 16.2655 221.12 17.321 218.794 18.4062L218.787 18.4093C193.714 30.1055 161.245 45.2517 106.376 34.1277C59.2519 24.5738 35.6407 2.57979 24.2173 -22.2019C23.4918 -23.7759 22.8153 -25.3614 22.185 -26.9559C22.0474 -27.6168 21.9158 -28.2777 21.79 -28.9386C34.9767 -8.80846 58.1453 8.18512 98.0266 16.2705C153.065 27.4287 185.664 12.2209 210.753 0.516495C213.081 -0.56988 215.345 -1.62606 217.556 -2.62819C230.578 -8.52926 241.715 -12.5273 253.462 -9.85945C265.204 -7.19278 277.621 2.15243 293.151 23.1319L293.577 22.7795C278.016 1.75831 265.49 -7.72483 253.551 -10.4362C241.618 -13.1464 230.338 -9.07228 217.321 -3.17301C215.108 -2.17006 212.843 -1.11351 210.514 -0.0271954C185.442 11.6689 152.973 26.8151 98.1039 15.6912C57.6158 7.48275 34.4847 -9.90872 21.5278 -30.3615C21.4112 -31.0157 21.3002 -31.6698 21.1944 -32.3235C21.1406 -33.3895 21.0975 -34.451 21.0642 -35.5071C35.0297 -21.1046 55.9665 -9.38229 87.0666 -3.07714C142.105 8.08108 174.704 -7.12677 199.793 -18.8311C202.121 -19.9175 204.385 -20.9737 206.596 -21.9758C219.618 -27.8769 230.755 -31.875 242.502 -29.2071C254.244 -26.5404 266.661 -17.1952 282.191 3.78421L282.617 3.43189C267.056 -17.5893 254.53 -27.0724 242.591 -29.7839C230.658 -32.494 219.378 -28.4199 206.361 -22.5207C204.148 -21.5177 201.883 -20.4612 199.554 -19.3749C174.482 -7.67872 142.013 7.46748 87.1439 -3.65649C55.8404 -10.0029 34.9123 -21.8386 21.04 -36.3343C20.9671 -39.0535 20.9579 -41.7356 20.9976 -44.3678C34.0944 -35.0994 51.3418 -27.6445 73.969 -23.0571C129.007 -11.8989 161.606 -27.1068 186.695 -38.8112L186.698 -38.8127C189.026 -39.8985 191.289 -40.9542 193.499 -41.9558C206.52 -47.8569 217.657 -51.8549 229.404 -49.1871C241.146 -46.5204 253.564 -37.1752 269.093 -16.1957L269.519 -16.5481C253.958 -37.5693 241.432 -47.0524 229.494 -49.7638C217.56 -52.474 206.281 -48.3999 193.263 -42.5006C191.05 -41.4977 188.785 -40.4411 186.457 -39.3548C161.384 -27.6587 128.915 -12.5125 74.0463 -23.6365C51.3235 -28.2432 34.0676 -35.7423 21.009 -45.0517C21.0767 -48.7458 21.2386 -52.3388 21.4529 -55.7949C31.9666 -50.6643 44.4235 -46.4592 59.1633 -43.4709C114.201 -32.3127 146.8 -47.5206 171.889 -59.2249C174.218 -60.3113 176.482 -61.3675 178.693 -62.3696C191.714 -68.2707 202.852 -72.2687 214.599 -69.6009C226.341 -66.9342 238.758 -57.589 254.288 -36.6095L254.713 -36.9619C239.153 -57.9831 226.627 -67.4662 214.688 -70.1776C202.755 -72.8878 191.475 -68.8137 178.458 -62.9144C176.246 -61.912 173.982 -60.856 171.655 -59.7702L171.651 -59.7686C146.578 -48.0725 114.11 -32.9263 59.2406 -44.0503C44.4614 -47.0465 31.9949 -51.2664 21.4918 -56.4121C21.6313 -58.5898 21.7909 -60.7118 21.9598 -62.769L21.4107 -62.8485C21.2466 -60.8508 21.0913 -58.7908 20.9544 -56.677C20.4165 -56.9439 19.8837 -57.2132 19.3561 -57.485C19.3756 -64.9126 19.8123 -71.9838 20.3409 -78.421L19.7918 -78.5005C19.2688 -72.1323 18.8342 -65.1317 18.8055 -57.7704C17.4475 -58.4789 16.1241 -59.2035 14.8343 -59.9435C13.7588 -72.727 14.3796 -85.0309 15.2491 -95.6192L14.7 -95.6988C13.8382 -85.204 13.2163 -72.9915 14.2555 -60.2779C12.2815 -61.4263 10.3873 -62.6111 8.56983 -63.8295C5.05488 -81.6732 5.78041 -99.4881 6.97667 -114.056L6.4275 -114.135C5.24252 -99.7048 4.51118 -82.0267 7.92788 -64.2634C5.59943 -65.8504 3.39889 -67.4932 1.31964 -69.1862C-6.25335 -91.4506 -5.49337 -115.014 -3.9833 -133.403L-4.53246 -133.483C-6.02447 -115.314 -6.79731 -91.9959 0.523186 -69.8421C-1.87005 -71.8354 -4.09885 -73.8963 -6.17378 -76.0157C-6.85611 -77.3235 -7.50186 -78.6408 -8.11275 -79.9661C-19.5479 -104.774 -18.8011 -132.436 -17.0809 -153.383L-17.6301 -153.463C-19.3511 -132.505 -20.1153 -104.696 -8.60489 -79.726C-8.24375 -78.9425 -7.87054 -78.1619 -7.48494 -77.3844C-14.1835 -84.5314 -19.1975 -92.3078 -22.9184 -100.38C-34.3536 -125.187 -33.6068 -152.849 -31.8866 -173.797L-32.4358 -173.877ZM19.2575 -35.4896C19.5397 -34.5296 19.8364 -33.5712 20.1481 -32.6151C20.3215 -32.3218 20.4969 -32.0292 20.6744 -31.7371C20.6644 -31.9205 20.6548 -32.1038 20.6456 -32.287C20.413 -33.7271 20.2061 -35.1651 20.0229 -36.5995C19.7915 -36.8466 19.562 -37.0944 19.3345 -37.343C19.3067 -36.7287 19.2809 -36.1109 19.2575 -35.4896ZM19.3713 -38.128C19.5483 -37.9323 19.7264 -37.7371 19.9059 -37.5423C19.7648 -38.711 19.6393 -39.8769 19.5281 -41.0393C19.4713 -40.0788 19.4187 -39.1082 19.3713 -38.128ZM19.2178 -44.7799C19.0775 -42.8064 18.951 -40.7819 18.8467 -38.7136C18.6176 -38.9717 18.3905 -39.2305 18.1656 -39.4901C17.4639 -42.2694 16.8757 -45.0567 16.3864 -47.8397C17.2871 -47.1182 18.2099 -46.406 19.1554 -45.7035C19.1753 -45.396 19.1961 -45.0881 19.2178 -44.7799ZM19.8536 -45.8881C19.9279 -46.8855 20.0055 -47.8694 20.0851 -48.8389L19.5359 -48.9185L19.5325 -48.877C19.4115 -51.5676 19.3571 -54.2272 19.3555 -56.8438C19.8705 -56.5799 20.3903 -56.3183 20.915 -56.059C20.701 -52.6456 20.5373 -49.0953 20.4644 -45.4428L20.3095 -45.555L20.2015 -45.6336L20.0961 -45.7104L20.001 -45.78L19.8536 -45.8881ZM19.7886 -45.0012L19.8048 -45.2252L19.9618 -45.1108L20.1564 -44.9697C20.2546 -44.8986 20.3531 -44.8277 20.4518 -44.7568C20.412 -42.3824 20.4115 -39.966 20.4612 -37.5171C20.1673 -39.9423 19.9403 -42.3565 19.7707 -44.7514L19.7886 -45.0012ZM18.808 -37.9235C18.7964 -37.6783 18.7851 -37.4325 18.7741 -37.1861C18.672 -37.5564 18.5719 -37.9269 18.4738 -38.2975C18.5847 -38.1727 18.6961 -38.048 18.808 -37.9235ZM18.7026 -35.4391C18.3349 -36.6949 17.9916 -37.9534 17.6717 -39.2134C16.8493 -40.1659 16.0545 -41.1284 15.2864 -42.1004C15.5013 -41.612 15.7207 -41.1247 15.9449 -40.6385C16.7923 -38.8002 17.7067 -36.9771 18.6929 -35.1734L18.7026 -35.4391ZM18.804 -57.1281C17.4679 -57.8216 16.1648 -58.5306 14.8938 -59.2545C15.2047 -55.7546 15.6442 -52.2205 16.2421 -48.6775C17.1735 -47.9216 18.1291 -47.1758 19.1095 -46.4406C18.8923 -50.0629 18.8017 -53.635 18.804 -57.1281ZM15.7403 -48.362C16.1921 -45.7158 16.7322 -43.0644 17.3729 -40.4182C16.3457 -41.6384 15.3633 -42.8745 14.4241 -44.1251C13.3565 -46.7159 12.4135 -49.3324 11.5829 -51.9642C12.9122 -50.7404 14.2973 -49.5391 15.7403 -48.362ZM14.3135 -59.5873C14.6102 -56.153 15.0295 -52.6839 15.5995 -49.2038C14.0856 -50.455 12.637 -51.7331 11.251 -53.0359C10.2423 -56.3575 9.40928 -59.7009 8.72711 -63.0449C10.5155 -61.8592 12.3767 -60.7059 14.3135 -59.5873ZM8.08202 -63.4762C5.8278 -64.9955 3.69107 -66.5668 1.66607 -68.1852C2.63736 -65.4266 3.7388 -62.6894 4.9849 -59.9861C5.12455 -59.6832 5.26603 -59.3806 5.40934 -59.0785C6.98793 -57.2788 8.66749 -55.5158 10.454 -53.7944C9.50937 -57.0102 8.72612 -60.2438 8.08202 -63.4762ZM10.7774 -52.7148C9.20631 -54.197 7.71518 -55.7111 6.30027 -57.2538C8.24735 -53.3777 10.5083 -49.5798 13.1277 -45.8982C12.256 -48.1558 11.4753 -50.4302 10.7774 -52.7148ZM0.861746 -68.8353C1.80873 -66.0677 2.88419 -63.3198 4.10259 -60.6039C0.430457 -64.9938 -2.66378 -69.5884 -5.26359 -74.3166C-3.34824 -72.4388 -1.30891 -70.6096 0.861746 -68.8353ZM23.6911 37.09C12.1807 12.1195 12.9449 -15.6888 14.6659 -36.6469L15.2151 -36.5674C13.4949 -15.6196 12.7481 12.0425 24.1833 36.8499C35.6066 61.6317 59.2178 83.6257 106.342 93.1795C161.211 104.304 193.68 89.1573 218.753 77.4612C221.081 76.3749 223.346 75.3183 225.559 74.3154C238.577 68.4161 249.856 64.342 261.79 67.0522C273.728 69.7636 286.254 79.2467 301.815 100.268L301.389 100.62C285.86 79.6408 273.442 70.2956 261.7 67.6289C249.953 64.9611 238.816 68.9592 225.795 74.8602C223.584 75.8622 221.32 76.9183 218.992 78.0045L218.991 78.0049C193.902 89.7093 161.303 104.917 106.265 93.7589C59.0043 84.1774 35.2133 62.0862 23.6911 37.09ZM7.42771 -25.774C5.7067 -4.81599 4.94255 22.9924 16.4529 47.9629C27.9752 72.959 51.7662 95.0503 99.0268 104.632C154.065 115.79 186.664 100.582 211.753 88.8777L211.754 88.8773C214.082 87.7911 216.346 86.7351 218.557 85.7331C231.578 79.832 242.715 75.8339 254.462 78.5018C266.204 81.1685 278.621 90.5137 294.151 111.493L294.577 111.141C279.016 90.1196 266.49 80.6364 254.552 77.9251C242.618 75.2148 231.338 79.289 218.321 85.1882C216.111 86.19 213.849 87.2451 211.523 88.33L211.522 88.3304L211.517 88.3328L211.515 88.3341C186.442 100.03 153.973 115.176 99.1041 104.052C51.9796 94.4985 28.3685 72.5045 16.9451 47.7228C5.50987 22.9154 6.25671 -4.7468 7.97687 -25.6945L7.42771 -25.774ZM7.54551 57.8033C-3.96488 32.8328 -3.20073 5.02445 -1.47972 -15.9336L-0.930561 -15.8541C-2.65073 5.09363 -3.39755 32.7558 8.03764 57.5632C19.461 82.3449 43.0722 104.339 90.1967 113.893C145.066 125.017 177.534 109.871 202.607 98.1745L202.61 98.1732L202.615 98.1708L202.616 98.1704C204.942 97.0855 207.204 96.0304 209.414 95.0287C222.431 89.1294 233.711 85.0553 245.644 87.7655C257.583 90.4769 270.109 99.96 285.669 120.981L285.244 121.334C269.714 100.354 257.297 91.0089 245.555 88.3422C233.808 85.6744 222.67 89.6724 209.649 95.5735C207.438 96.5755 205.175 97.6315 202.846 98.7178L202.845 98.7182C177.756 110.423 145.157 125.63 90.1194 114.472C42.8587 104.891 19.0677 82.7995 7.54551 57.8033ZM-11.3653 -6.7399C-13.0863 14.2182 -13.8505 42.0265 -2.3401 66.997C9.18211 91.9932 32.9731 114.084 80.2338 123.666C135.272 134.824 167.871 119.616 192.96 107.912L192.96 107.911C195.289 106.825 197.553 105.769 199.764 104.767C212.785 98.8661 223.922 94.8681 235.669 97.5359C247.411 100.203 259.828 109.548 275.358 130.527L275.784 130.175C260.223 109.154 247.697 99.6706 235.759 96.9592C223.825 94.249 212.545 98.3231 199.528 104.222C197.318 105.224 195.055 106.28 192.729 107.365L192.724 107.367L192.722 107.368C167.649 119.064 135.18 134.211 80.3111 123.087C33.1866 113.533 9.57541 91.5386 -1.84795 66.7569C-13.2832 41.9495 -12.5363 14.2873 -10.8162 -6.66038L-11.3653 -6.7399ZM-12.7182 75.8697C-24.2286 50.8992 -23.4644 23.0908 -21.7434 2.13281L-21.1942 2.21232C-22.9144 23.16 -23.6612 50.8222 -12.226 75.6296C-0.802654 100.411 22.8085 122.405 69.933 131.959C124.802 143.083 157.271 127.937 182.344 116.241C184.672 115.155 186.937 114.098 189.15 113.095C202.167 107.196 213.447 103.122 225.381 105.832C237.319 108.543 249.845 118.026 265.406 139.048L264.98 139.4C249.45 118.421 237.033 109.075 225.291 106.409C213.544 103.741 202.407 107.739 189.386 113.64C187.174 114.642 184.91 115.698 182.582 116.785C157.493 128.489 124.894 143.697 69.8557 132.539C22.595 122.957 -1.19595 100.866 -12.7182 75.8697ZM-32.206 10.9496C-33.927 31.9076 -34.6911 59.716 -23.1808 84.6865C-11.6585 109.683 12.1325 131.774 59.3931 141.355C114.431 152.514 147.03 137.306 172.119 125.601L172.12 125.601C174.448 124.515 176.712 123.459 178.923 122.457C191.944 116.556 203.082 112.558 214.829 115.225C226.57 117.892 238.988 127.237 254.517 148.217L254.943 147.864C239.383 126.843 226.857 117.36 214.918 114.649C202.985 111.938 191.705 116.013 178.688 121.912C176.474 122.915 174.21 123.971 171.881 125.058C146.808 136.754 114.34 151.9 59.4704 140.776C12.3459 131.222 -11.2652 109.228 -22.6886 84.4464C-34.1238 59.639 -33.377 31.9768 -31.6568 11.0291L-32.206 10.9496ZM-33.4195 93.6521C-44.9299 68.6816 -44.1657 40.8732 -42.4447 19.9152L-41.8956 19.9947C-43.6157 40.9424 -44.3626 68.6046 -32.9274 93.412C-21.504 118.194 2.10717 140.188 49.2317 149.742C104.101 160.866 136.569 145.719 161.642 134.023C163.971 132.937 166.236 131.88 168.449 130.877C181.466 124.978 192.746 120.904 204.679 123.614C216.618 126.326 229.144 135.809 244.704 156.83L244.279 157.182C228.749 136.203 216.332 126.858 204.59 124.191C192.843 121.523 181.705 125.521 168.684 131.422C166.473 132.424 164.209 133.481 161.88 134.567C136.791 146.271 104.192 161.479 49.1544 150.321C1.8937 140.74 -21.8973 118.648 -33.4195 93.6521ZM-52.2581 29.1714C-53.9791 50.1294 -54.7432 77.9378 -43.2328 102.908C-31.7106 127.904 -7.91961 149.996 39.3411 159.577C94.3791 170.735 126.978 155.528 152.067 143.823C154.396 142.737 156.66 141.681 158.871 140.678C171.892 134.777 183.029 130.779 194.776 133.447C206.518 136.114 218.936 145.459 234.465 166.439L234.891 166.086C219.331 145.065 206.804 135.582 194.866 132.87C182.932 130.16 171.653 134.234 158.636 140.134C156.425 141.135 154.163 142.191 151.837 143.276L151.83 143.279L151.829 143.279C126.756 154.976 94.2875 170.122 39.4183 158.998C-7.70614 149.444 -31.3173 127.45 -42.7407 102.668C-54.1759 77.8608 -53.4291 50.1986 -51.7089 29.2509L-52.2581 29.1714ZM-52.4231 112.557C-63.9335 87.5868 -63.1694 59.7785 -61.4484 38.8204L-60.8992 38.8999C-62.6194 59.8477 -63.3662 87.5098 -51.931 112.317C-40.5076 137.099 -16.8965 159.093 30.228 168.647C85.0971 179.771 117.566 164.625 142.639 152.929C144.967 151.842 147.232 150.786 149.445 149.783C162.462 143.883 173.742 139.809 185.676 142.52C197.614 145.231 210.14 154.714 225.701 175.735L225.275 176.088C209.745 155.108 197.328 145.763 185.586 143.096C173.839 140.428 162.702 144.426 149.681 150.328C147.469 151.33 145.205 152.386 142.877 153.472C117.788 165.177 85.1888 180.384 30.1507 169.226C-17.1099 159.645 -40.9009 137.554 -52.4231 112.557ZM-69.9201 48.9263C-71.6411 69.8843 -72.4053 97.6927 -60.8949 122.663C-49.3727 147.659 -25.5817 169.751 21.679 179.332C76.717 190.49 109.316 175.282 134.405 163.578C136.734 162.492 138.998 161.435 141.209 160.433C154.23 154.532 165.367 150.534 177.114 153.202C188.856 155.869 201.274 165.214 216.803 186.193L217.229 185.841C201.668 164.82 189.142 155.337 177.204 152.625C165.27 149.915 153.991 153.989 140.974 159.889C138.76 160.891 136.495 161.948 134.167 163.034C109.094 174.73 76.6254 189.877 21.7563 178.753C-25.3682 169.199 -48.9794 147.205 -60.4027 122.423C-71.8379 97.6157 -71.0911 69.9535 -69.3709 49.0058L-69.9201 48.9263Z" fill="url(#paint0_radial_6806_1007)" fill-opacity="0.2"/>
<defs>
<radialGradient id="paint0_radial_6806_1007" cx="0" cy="0" r="1" gradientUnits="userSpaceOnUse" gradientTransform="translate(84.0834 64.5577) rotate(19.8003) scale(208.226 169.824)">
<stop stop-color="white"/>
<stop offset="1" stop-color="#1E1E1E" stop-opacity="0"/>
<stop offset="1" stop-color="#0E0E35" stop-opacity="0"/>
<stop offset="1" stop-color="white" stop-opacity="0"/>
</radialGradient>
</defs>
</svg>
