<svg width="16" height="19" viewBox="0 0 16 19" fill="none" xmlns="http://www.w3.org/2000/svg">
<path d="M10.8588 4.7082C10.8588 6.42828 9.46438 7.82268 7.7443 7.82268V9.26013C10.2583 9.26013 12.2962 7.22216 12.2962 4.7082H10.8588ZM7.7443 1.59373C9.46438 1.59373 10.8588 2.98813 10.8588 4.7082H12.2962C12.2962 2.19424 10.2583 0.156274 7.7443 0.156274V1.59373ZM4.62982 4.7082C4.62982 2.98813 6.02422 1.59373 7.7443 1.59373V0.156274C5.23034 0.156274 3.19237 2.19424 3.19237 4.7082H4.62982ZM7.7443 7.82268C6.02422 7.82268 4.62982 6.42828 4.62982 4.7082H3.19237C3.19237 7.22216 5.23034 9.26013 7.7443 9.26013V7.82268ZM13.7337 14.2912C13.7337 14.9805 13.2382 15.745 12.1311 16.3777C11.0442 16.9987 9.49479 17.4057 7.7443 17.4057V18.8431C9.6986 18.8431 11.5032 18.392 12.8442 17.6257C14.1649 16.871 15.1711 15.719 15.1711 14.2912H13.7337ZM7.7443 11.1767C9.49479 11.1767 11.0442 11.5837 12.1311 12.2048C13.2382 12.8374 13.7337 13.6019 13.7337 14.2912H15.1711C15.1711 12.8635 14.1649 11.7114 12.8442 10.9567C11.5032 10.1904 9.6986 9.73928 7.7443 9.73928V11.1767ZM1.75492 14.2912C1.75492 13.6019 2.25037 12.8374 3.35754 12.2048C4.44438 11.5837 5.99381 11.1767 7.7443 11.1767V9.73928C5.79 9.73928 3.98538 10.1904 2.64437 10.9567C1.32368 11.7114 0.317468 12.8635 0.317468 14.2912H1.75492ZM7.7443 17.4057C5.99381 17.4057 4.44438 16.9987 3.35754 16.3777C2.25037 15.745 1.75492 14.9805 1.75492 14.2912H0.317468C0.317468 15.719 1.32368 16.871 2.64437 17.6257C3.98538 18.392 5.79 18.8431 7.7443 18.8431V17.4057Z" fill="#202020" fill-opacity="0.8"/>
</svg>
