<svg width="22" height="22" viewBox="0 0 22 22" fill="none" xmlns="http://www.w3.org/2000/svg">
<path d="M21.275 11.5835C21.275 10.8607 21.2152 10.134 21.0876 9.42285H10.8516V13.5176H16.7132C16.47 14.8382 15.6884 16.0065 14.544 16.7489V19.4058H18.0411C20.0947 17.5537 21.275 14.8187 21.275 11.5835Z" fill="#4285F4"/>
<path d="M10.852 21.9728C13.7788 21.9728 16.2471 21.0312 18.0455 19.4058L14.5484 16.7489C13.5755 17.3975 12.3194 17.7647 10.856 17.7647C8.02483 17.7647 5.62433 15.8932 4.76302 13.377H1.1543V16.1159C2.99654 19.7066 6.74881 21.9728 10.852 21.9728Z" fill="#34A853"/>
<path d="M4.75913 13.3772C4.30455 12.0565 4.30455 10.6265 4.75913 9.30584V6.56689H1.15439C-0.384797 9.57153 -0.384797 13.1115 1.15439 16.1161L4.75913 13.3772Z" fill="#FBBC04"/>
<path d="M10.852 4.91385C12.3992 4.89041 13.8945 5.46086 15.015 6.50799L18.1133 3.4721C16.1514 1.66697 13.5476 0.674537 10.852 0.705795C6.74881 0.705795 2.99654 2.97197 1.1543 6.5666L4.75903 9.30555C5.61635 6.7854 8.02084 4.91385 10.852 4.91385Z" fill="#EA4335"/>
</svg>
