<svg width="41" height="53" viewBox="0 0 41 53" fill="none" xmlns="http://www.w3.org/2000/svg">
<path d="M12.6683 15.1696C12.6683 14.5898 12.1981 14.1196 11.6183 14.1196C11.0385 14.1196 10.5684 14.5898 10.5684 15.1696C10.5684 15.7494 11.0385 16.2196 11.6183 16.2196C12.1981 16.2196 12.6683 15.7494 12.6683 15.1696Z" fill="#29AB51"/>
<path d="M30.3382 15.1696C30.3382 14.5898 29.8681 14.1196 29.2883 14.1196C28.7085 14.1196 28.2383 14.5898 28.2383 15.1696C28.2383 15.7494 28.7085 16.2196 29.2883 16.2196C29.8681 16.2196 30.3382 15.7494 30.3382 15.1696Z" fill="#29AB51"/>
<path d="M30.3641 36.5816L22.2701 37.1354C21.9067 37.1614 21.5548 37.2508 21.2317 37.4037C20.8942 37.5652 20.5855 37.7931 20.3288 38.0758L14.8828 44.0872L15.0905 24.7925L30.3641 36.5816Z" fill="#29AB51"/>
<path d="M40.3393 49.4295L39.7277 45.0623L35.2827 13.39C35.1067 12.1353 34.0337 11.2007 32.7645 11.2007H30.3472V9.86802C30.3472 4.41912 25.931 0 20.4821 0C17.7591 0 15.2899 1.10478 13.5044 2.89031C11.7188 4.67584 10.6141 7.14501 10.6141 9.86802V11.2007H7.59972C6.33052 11.2007 5.25747 12.1353 5.08151 13.39L0.0739449 49.0776L0.0249082 49.4295C-0.188548 50.9612 0.997002 52.3256 2.54312 52.3256H22.4868L21.5378 50.367L19.8013 46.7786C19.559 46.2767 19.7696 45.6738 20.2715 45.4315C20.7734 45.1863 21.3763 45.3969 21.6215 45.8988L23.6897 50.1766L24.731 52.3256H27.2896L26.0983 49.8622L22.4666 42.3624C22.2243 41.8605 22.4349 41.2547 22.9368 41.0124C23.4387 40.7701 24.0416 40.9807 24.2868 41.4826L28.1694 49.5045L29.5338 52.3256H32.0029L30.3962 49.0055L27.4454 42.9076C27.2031 42.4056 27.4136 41.8028 27.9155 41.5605C28.4174 41.3182 29.0203 41.5259 29.2626 42.0278L32.3722 48.4545L34.2471 52.3256H37.8182C39.3643 52.3256 40.5527 50.9612 40.3393 49.4295ZM31.5645 15.1698C31.5645 16.4246 30.5462 17.4457 29.2886 17.4457C28.0309 17.4457 27.0127 16.4246 27.0127 15.1698C27.0127 13.915 28.0309 12.891 29.2886 12.891C30.5462 12.891 31.5645 13.9121 31.5645 15.1698ZM12.6332 9.86802C12.6332 5.46044 16.2851 1.89226 20.7186 2.02206C24.9877 2.14898 28.328 5.76331 28.328 10.0324V11.2007H12.6332V9.86802ZM11.6179 12.8131C12.9188 12.8131 13.9717 13.8689 13.9717 15.1698C13.9717 16.4707 12.9188 17.5236 11.6179 17.5236C10.317 17.5236 9.26409 16.4678 9.26409 15.1698C9.26409 13.8718 10.317 12.8131 11.6179 12.8131ZM32.1587 37.1269C31.9308 37.8711 31.2703 38.399 30.4914 38.4538L22.4003 39.0048C22.1378 39.025 21.8955 39.1403 21.7195 39.3365L16.2735 45.345C15.9101 45.7459 15.4024 45.9623 14.8832 45.9623C14.6553 45.9623 14.4217 45.919 14.1995 45.8325C13.4755 45.5498 12.9996 44.846 13.0082 44.0671L13.2159 24.7753C13.2217 24.0628 13.6313 23.4167 14.2717 23.1081C14.912 22.7965 15.6735 22.8744 16.236 23.31L31.5097 35.0991C32.127 35.5751 32.3837 36.3827 32.1587 37.1269Z" fill="url(#paint0_linear_6730_218)"/>
<path style="mix-blend-mode:soft-light" d="M29.8088 36.4981L21.7148 37.0519C21.3513 37.0779 20.9994 37.1673 20.6763 37.3202L14.5352 24.709L29.8088 36.4981Z" fill="url(#paint1_linear_6730_218)"/>
<defs>
<linearGradient id="paint0_linear_6730_218" x1="34.2096" y1="5.64793" x2="12.5467" y2="54.8409" gradientUnits="userSpaceOnUse">
<stop stop-color="#31E86A"/>
<stop offset="0.52" stop-color="#29AB51"/>
<stop offset="1" stop-color="#279649"/>
</linearGradient>
<linearGradient id="paint1_linear_6730_218" x1="29.5694" y1="13.8054" x2="14.913" y2="47.0844" gradientUnits="userSpaceOnUse">
<stop stop-color="white" stop-opacity="0"/>
<stop offset="1" stop-color="white"/>
</linearGradient>
</defs>
</svg>
