<svg width="33" height="33" viewBox="0 0 33 33" fill="none" xmlns="http://www.w3.org/2000/svg">
<rect width="33" height="33" rx="16.5" fill="#F4A719"/>
<path d="M20.23 21.7614C20.4382 21.8714 20.7073 21.8595 20.893 21.6951L20.8996 21.7017C21.6095 21.0722 22.3268 20.4512 23.0515 19.8388C23.2809 19.6492 23.2411 19.3456 23.0595 19.0923L22.8937 18.8669C22.4363 18.2504 22.0014 17.6657 22.0014 16.4923V12.1168L22.0027 11.6726C22.0133 9.99538 22.0213 8.46265 20.7657 7.29056C19.6877 6.25636 17.9057 5.89307 16.54 5.89307C13.871 5.89307 10.8917 6.88749 10.2633 10.189C10.201 10.539 10.4529 10.7246 10.6823 10.7763L13.4056 11.068C13.6576 11.0561 13.8432 10.8082 13.8909 10.5549C14.1243 9.41862 15.0789 8.8697 16.1489 8.8697C16.7257 8.8697 17.3807 9.08184 17.7241 9.59894C18.0741 10.116 18.0688 10.8055 18.0648 11.4234V11.9962C17.7996 12.0253 17.5252 12.054 17.2414 12.0823C15.7657 12.2335 14.0633 12.4085 12.7864 12.9707C11.0283 13.7291 9.79125 15.2804 9.79125 17.5583C9.79125 20.4752 11.6303 21.9311 13.9917 21.9311C15.9885 21.9311 17.0784 21.4617 18.6177 19.8892L18.8391 20.2154C19.2024 20.7523 19.4438 21.1103 20.2274 21.7614H20.23ZM13.8883 17.0717C13.8883 14.6798 16.0322 14.2462 18.0608 14.2462V15.002C18.0622 16.0308 18.0635 16.9033 17.5358 17.8301C17.0903 18.619 16.3823 19.1043 15.5934 19.1043C14.5167 19.1043 13.8883 18.2835 13.8883 17.0717ZM6.46989 22.0345C9.95566 24.1599 15.3507 27.4494 23.9491 23.3564C24.3204 23.2026 24.5789 23.4598 24.213 23.9279C23.8431 24.4025 20.8916 27.1074 15.9301 27.1074C10.9739 27.1074 7.17659 23.721 6.01776 22.3156C5.69955 21.951 6.06549 21.7852 6.28161 21.9191L6.46989 22.0345Z" fill="white"/>
<path d="M24.2275 21.728C24.9793 21.6352 26.1739 21.6922 26.4086 21.9985C26.5876 22.2319 26.4033 23.2793 26.0997 24.0311C25.7947 24.7776 25.3413 25.3053 25.0893 25.5095C24.8374 25.7137 24.6478 25.6341 24.7844 25.3278C24.9236 25.0229 25.6913 23.1229 25.3877 22.7251C25.1052 22.3565 23.8271 22.4904 23.2331 22.5528L23.1138 22.5647C22.9882 22.5762 22.8853 22.5868 22.8048 22.5965C22.5489 22.6243 22.48 22.6323 22.4415 22.5541C22.3434 22.277 23.4744 21.8169 24.2275 21.728Z" fill="white"/>
</svg>
