<svg width="18" height="18" viewBox="0 0 18 18" fill="none" xmlns="http://www.w3.org/2000/svg">
<path d="M4 11.5C5.38071 11.5 6.5 10.3807 6.5 9C6.5 7.61929 5.38071 6.5 4 6.5C2.61929 6.5 1.5 7.61929 1.5 9C1.5 10.3807 2.61929 11.5 4 11.5Z" stroke="#29AB51" stroke-width="1.5" stroke-linecap="round" stroke-linejoin="round"/>
<path d="M14 6.5C15.3807 6.5 16.5 5.38071 16.5 4C16.5 2.61929 15.3807 1.5 14 1.5C12.6193 1.5 11.5 2.61929 11.5 4C11.5 5.38071 12.6193 6.5 14 6.5Z" stroke="#29AB51" stroke-width="1.5" stroke-linecap="round" stroke-linejoin="round"/>
<path d="M14 16.5C15.3807 16.5 16.5 15.3807 16.5 14C16.5 12.6193 15.3807 11.5 14 11.5C12.6193 11.5 11.5 12.6193 11.5 14C11.5 15.3807 12.6193 16.5 14 16.5Z" stroke="#29AB51" stroke-width="1.5" stroke-linecap="round" stroke-linejoin="round"/>
<path d="M6.25 7.91683L11.75 5.0835" stroke="#29AB51" stroke-width="1.5" stroke-linecap="round" stroke-linejoin="round"/>
<path d="M6.25 10.0835L11.75 12.9168" stroke="#29AB51" stroke-width="1.5" stroke-linecap="round" stroke-linejoin="round"/>
</svg>
