<svg width="16" height="16" viewBox="0 0 16 16" fill="none" xmlns="http://www.w3.org/2000/svg">
<path d="M11.0375 2.55566L13.4439 4.96198M4.87492 4.37474H2.34373C2.11996 4.37474 1.90535 4.46363 1.74712 4.62186C1.58889 4.78009 1.5 4.9947 1.5 5.21847V13.6558C1.5 13.8796 1.58889 14.0942 1.74712 14.2524C1.90535 14.4106 2.11996 14.4995 2.34373 14.4995H11.6248C11.8485 14.4995 12.0631 14.4106 12.2214 14.2524C12.3796 14.0942 12.4685 13.8796 12.4685 13.6558V9.85899M14.501 1.49762C14.6591 1.65565 14.7846 1.84329 14.8701 2.0498C14.9557 2.25631 14.9997 2.47766 14.9997 2.7012C14.9997 2.92474 14.9557 3.14608 14.8701 3.3526C14.7846 3.55911 14.6591 3.74675 14.501 3.90478L8.72655 9.67928L5.71865 10.2809L6.32023 7.27296L12.0947 1.49846C12.2526 1.34029 12.4402 1.21481 12.6466 1.1292C12.8531 1.04358 13.0744 0.999512 13.2979 0.999512C13.5214 0.999512 13.7427 1.04358 13.9491 1.1292C14.1556 1.21481 14.3431 1.34029 14.501 1.49846V1.49762Z" stroke="white" stroke-width="1.5" stroke-linecap="round" stroke-linejoin="round"/>
</svg>
