<svg width="20" height="16" viewBox="0 0 20 16" fill="none" xmlns="http://www.w3.org/2000/svg">
<path d="M7.12499 1.40253C7.9739 1.13342 8.85943 0.997635 9.74998 1.00003C13.4092 1.00003 15.8995 3.18753 17.3843 5.11602C18.1281 6.08377 18.5 6.56589 18.5 8.00002C18.5 9.43501 18.1281 9.91714 17.3843 10.884C15.8995 12.8125 13.4092 15 9.74998 15C6.09074 15 3.60049 12.8125 2.11562 10.884C1.37187 9.91801 1 9.43414 1 8.00002C1 6.56502 1.37187 6.0829 2.11562 5.11602C2.56919 4.52339 3.07428 3.97204 3.62499 3.4684" stroke="#29AB51" stroke-width="1.5" stroke-linecap="round"/>
<path d="M11.625 7.99999C11.625 8.49727 11.4274 8.97419 11.0758 9.32582C10.7242 9.67744 10.2473 9.87499 9.74999 9.87499C9.25271 9.87499 8.7758 9.67744 8.42417 9.32582C8.07254 8.97419 7.875 8.49727 7.875 7.99999C7.875 7.50271 8.07254 7.0258 8.42417 6.67417C8.7758 6.32254 9.25271 6.125 9.74999 6.125C10.2473 6.125 10.7242 6.32254 11.0758 6.67417C11.4274 7.0258 11.625 7.50271 11.625 7.99999Z" stroke="#29AB51" stroke-width="1.5"/>
</svg>
