<svg width="17" height="14" viewBox="0 0 17 14" fill="none" xmlns="http://www.w3.org/2000/svg">
<path d="M6.24999 1.34503C6.97763 1.11436 7.73666 0.997973 8.49998 1.00003C11.6365 1.00003 13.771 2.87502 15.0437 4.52802C15.6812 5.35752 16 5.77077 16 7.00001C16 8.23001 15.6812 8.64326 15.0437 9.47201C13.771 11.125 11.6365 13 8.49998 13C5.36349 13 3.22899 11.125 1.95625 9.47201C1.31875 8.64401 1 8.22926 1 7.00001C1 5.77002 1.31875 5.35677 1.95625 4.52802C2.34502 4.02005 2.77795 3.54746 3.24999 3.11577" stroke="white" stroke-width="1.2" stroke-linecap="round"/>
<path d="M10.15 6.99999C10.15 7.4376 9.97615 7.85728 9.66672 8.16672C9.35728 8.47615 8.9376 8.64999 8.49999 8.64999C8.06239 8.64999 7.64271 8.47615 7.33327 8.16672C7.02384 7.85728 6.85 7.4376 6.85 6.99999C6.85 6.56239 7.02384 6.14271 7.33327 5.83327C7.64271 5.52384 8.06239 5.35 8.49999 5.35C8.9376 5.35 9.35728 5.52384 9.66672 5.83327C9.97615 6.14271 10.15 6.56239 10.15 6.99999Z" stroke="white" stroke-width="1.2"/>
</svg>
