<svg width="18" height="20" viewBox="0 0 18 20" fill="none" xmlns="http://www.w3.org/2000/svg">
<path d="M17.6286 14.9989C17.5508 14.9052 17.4744 14.8114 17.3994 14.7209C16.3682 13.4736 15.7443 12.7208 15.7443 9.18969C15.7443 7.36156 15.3069 5.86156 14.4449 4.73656C13.8093 3.90547 12.9501 3.275 11.8176 2.80906C11.803 2.80096 11.79 2.79032 11.7791 2.77766C11.3718 1.41359 10.2571 0.5 8.9999 0.5C7.74271 0.5 6.62849 1.41359 6.22115 2.77625C6.21027 2.78845 6.19744 2.79875 6.18318 2.80672C3.54036 3.89469 2.25599 5.98203 2.25599 9.18828C2.25599 12.7208 1.63302 13.4736 0.600833 14.7195C0.525833 14.81 0.449427 14.9019 0.371614 14.9975C0.170615 15.2399 0.0432647 15.5348 0.00463615 15.8473C-0.0339924 16.1598 0.0177171 16.4769 0.153645 16.7609C0.442864 17.3703 1.05927 17.7486 1.76286 17.7486H16.2421C16.9424 17.7486 17.5546 17.3708 17.8447 16.7642C17.9813 16.4801 18.0335 16.1628 17.9952 15.8499C17.9569 15.537 17.8297 15.2417 17.6286 14.9989ZM9.17636 19.9986C9.85372 19.998 10.5183 19.8142 11.0996 19.4665C11.6809 19.1188 12.1573 18.6203 12.4782 18.0238C12.4934 17.9952 12.5008 17.9632 12.4999 17.9308C12.499 17.8985 12.4897 17.867 12.473 17.8393C12.4563 17.8116 12.4328 17.7887 12.4046 17.7728C12.3764 17.7569 12.3446 17.7486 12.3123 17.7486H6.04136C6.00898 17.7485 5.97712 17.7568 5.94889 17.7726C5.92066 17.7885 5.89701 17.8114 5.88026 17.8391C5.8635 17.8668 5.85421 17.8983 5.85328 17.9307C5.85235 17.9631 5.85981 17.9951 5.87495 18.0238C6.19583 18.6202 6.67213 19.1187 7.25336 19.4664C7.83459 19.8141 8.49907 19.998 9.17636 19.9986Z" fill="#202020"/>
</svg>
