<svg width="18" height="18" viewBox="0 0 18 18" fill="none" xmlns="http://www.w3.org/2000/svg">
<path fill-rule="evenodd" clip-rule="evenodd" d="M9 0C8.49349 0 8.02716 0.125581 7.5173 0.336558C7.02419 0.540837 6.45153 0.841395 5.73907 1.21563L4.00772 2.124C3.13284 2.58279 2.43377 2.95033 1.89209 3.31116C1.33284 3.6854 0.900837 4.07888 0.586884 4.61219C0.273767 5.14381 0.133116 5.71981 0.0653023 6.40549C-4.36639e-08 7.07107 0 7.88902 0 8.91879V9.08121C0 10.111 -4.36639e-08 10.9289 0.0653023 11.5945C0.133116 12.281 0.274605 12.8562 0.586884 13.3878C0.900837 13.9211 1.332 14.3146 1.89293 14.6888C2.43293 15.0497 3.13284 15.4172 4.00772 15.876L5.73907 16.7844C6.45153 17.1586 7.02419 17.4592 7.5173 17.6634C8.028 17.8744 8.49349 18 9 18C9.50651 18 9.97284 17.8744 10.4827 17.6634C10.9758 17.4592 11.5485 17.1586 12.2609 16.7844L13.9923 15.8768C14.8672 15.4172 15.5662 15.0497 16.1071 14.6888C16.668 14.3146 17.0992 13.9211 17.4131 13.3878C17.7262 12.8562 17.8669 12.2802 17.9347 11.5945C18 10.9289 18 10.111 18 9.08205V8.91795C18 7.88902 18 7.07107 17.9347 6.40549C17.8669 5.71898 17.7254 5.14381 17.4131 4.61219C17.0992 4.07888 16.668 3.6854 16.1071 3.31116C15.5671 2.95033 14.8672 2.58279 13.9923 2.124L12.2609 1.21563C11.5485 0.841395 10.9758 0.540837 10.4827 0.336558C9.972 0.125581 9.50651 0 9 0ZM6.29581 2.34084C7.04093 1.94986 7.56335 1.67693 7.99702 1.49777C8.41898 1.32279 8.71619 1.25581 9 1.25581C9.28465 1.25581 9.58102 1.32279 10.003 1.49777C10.4367 1.67693 10.9582 1.94986 11.7033 2.34084L13.3778 3.21991C14.2903 3.69795 14.9308 4.03535 15.4105 4.35516C15.6466 4.5134 15.8316 4.65991 15.9823 4.80726L13.1936 6.20121L6.0773 2.45553L6.29581 2.34084ZM4.76791 3.14288L4.62223 3.21991C3.70967 3.69795 3.06921 4.03535 2.59033 4.35516C2.38599 4.48763 2.19454 4.63899 2.01851 4.80726L9 8.29842L11.8105 6.89191L4.94037 3.27684C4.87549 3.24262 4.81712 3.19728 4.76791 3.14288ZM1.41321 5.90819C1.37135 6.08735 1.3387 6.29079 1.31526 6.52772C1.25665 7.12549 1.25581 7.88149 1.25581 8.9506V9.04856C1.25581 10.1185 1.25581 10.8745 1.31526 11.4714C1.37302 12.055 1.4827 12.4326 1.6694 12.7507C1.85526 13.0663 2.124 13.3334 2.59033 13.6448C3.06921 13.9647 3.70967 14.302 4.62223 14.7801L6.29665 15.6592C7.04177 16.0501 7.56335 16.3231 7.99702 16.5022C8.13433 16.5592 8.25739 16.6044 8.37209 16.6404V9.38763L1.41321 5.90819ZM9.62791 16.6395C9.7426 16.6044 9.86567 16.5592 10.003 16.5022C10.4367 16.3231 10.9582 16.0501 11.7033 15.6592L13.3778 14.7801C14.2903 14.3012 14.9308 13.9647 15.4105 13.6448C15.876 13.3334 16.1447 13.0663 16.3314 12.7507C16.5181 12.4326 16.627 12.0558 16.6847 11.4714C16.7433 10.8745 16.7442 10.1185 16.7442 9.0494V8.95144C16.7442 7.88149 16.7442 7.12549 16.6847 6.52856C16.6659 6.3201 16.6332 6.11313 16.5868 5.90902L13.814 7.2946V9.83721C13.814 10.0037 13.7478 10.1635 13.63 10.2812C13.5123 10.399 13.3526 10.4651 13.186 10.4651C13.0195 10.4651 12.8598 10.399 12.742 10.2812C12.6243 10.1635 12.5581 10.0037 12.5581 9.83721V7.92335L9.62791 9.38846V16.6395Z" fill="#29AB51"/>
</svg>
