<svg width="33" height="33" viewBox="0 0 33 33" fill="none" xmlns="http://www.w3.org/2000/svg">
<rect width="33" height="33" rx="16.5" fill="#95BF46"/>
<g clip-path="url(#clip0_6894_1263)">
<path d="M23.7608 10.059C23.7458 9.95289 23.6504 9.89418 23.5716 9.88772C22.9903 9.84517 22.409 9.80296 21.8276 9.76109C21.8276 9.76109 20.6711 8.64261 20.5442 8.51882C20.4171 8.39509 20.1691 8.43272 20.0728 8.46033C20.0586 8.4644 19.8201 8.53611 19.4256 8.65504C19.0393 7.57209 18.3574 6.57691 17.1579 6.57691C17.1248 6.57691 17.0907 6.57822 17.0567 6.58011C16.7155 6.14064 16.2929 5.94971 15.9279 5.94971C13.1337 5.94971 11.7988 9.35235 11.3803 11.0815C10.2945 11.4092 9.52318 11.6422 9.42465 11.6723C8.8186 11.8575 8.79944 11.8761 8.71986 12.4324C8.65997 12.8536 7.07422 24.7996 7.07422 24.7996L19.4307 27.0549L26.1259 25.644C26.1259 25.644 23.7755 10.165 23.7608 10.059ZM18.7426 8.86079L17.6971 9.17602C17.6975 9.10424 17.6978 9.03363 17.6978 8.9564C17.6978 8.28335 17.6019 7.74144 17.4481 7.31185C18.0661 7.38741 18.4777 8.07244 18.7426 8.86079ZM16.6814 7.44531C16.8532 7.86473 16.9649 8.46665 16.9649 9.2789C16.9649 9.32045 16.9645 9.35845 16.9642 9.39688C16.2842 9.60205 15.5453 9.8248 14.8048 10.0483C15.2206 8.48511 16 7.73011 16.6814 7.44531ZM15.8512 6.67978C15.9718 6.67978 16.0933 6.71967 16.2096 6.79762C15.3141 7.20811 14.3542 8.24194 13.9488 10.3065L12.242 10.8214C12.7168 9.24671 13.8442 6.67978 15.8512 6.67978Z" fill="white"/>
<path d="M23.5714 9.88722C22.9901 9.84467 22.4088 9.80246 21.8275 9.76059C21.8275 9.76059 20.6709 8.64212 20.544 8.51832C20.4965 8.47226 20.4324 8.44865 20.3654 8.43848L19.4312 27.0542L26.1257 25.6435C26.1257 25.6435 23.7754 10.1645 23.7606 10.0585C23.7456 9.95239 23.6502 9.89369 23.5714 9.88722Z" fill="#C1C1C1"/>
<path d="M17.158 13.4914L16.3324 15.8836C16.3324 15.8836 15.6091 15.5075 14.7225 15.5075C13.4227 15.5075 13.3573 16.3021 13.3573 16.5023C13.3573 17.5949 16.2809 18.0135 16.2809 20.5726C16.2809 22.586 14.97 23.8824 13.2024 23.8824C11.0813 23.8824 9.99658 22.5965 9.99658 22.5965L10.5645 20.7686C10.5645 20.7686 11.6795 21.7011 12.6204 21.7011C13.2351 21.7011 13.4852 21.2296 13.4852 20.885C13.4852 19.4599 11.0867 19.3963 11.0867 17.0546C11.0867 15.0836 12.5389 13.1763 15.4704 13.1763C16.6 13.1763 17.158 13.4914 17.158 13.4914Z" fill="#95BF46"/>
</g>
<defs>
<clipPath id="clip0_6894_1263">
<rect width="19.0929" height="21.2143" fill="white" transform="translate(7.07129 5.89307)"/>
</clipPath>
</defs>
</svg>
