<svg width="19" height="17" viewBox="0 0 19 17" fill="none" xmlns="http://www.w3.org/2000/svg">
<path d="M16.0006 4.26074H2.9566C1.876 4.26074 1 5.13674 1 6.21734V14.0437C1 15.1244 1.876 16.0004 2.9566 16.0004H16.0006C17.0812 16.0004 17.9572 15.1244 17.9572 14.0437V6.21734C17.9572 5.13674 17.0812 4.26074 16.0006 4.26074Z" stroke="#29AB51" stroke-width="1.5" stroke-linejoin="round"/>
<path d="M15.8115 4.26035V3.03747C15.8114 2.73754 15.7451 2.44133 15.6173 2.16997C15.4896 1.89862 15.3035 1.6588 15.0724 1.46763C14.8413 1.27647 14.5708 1.13867 14.2803 1.06406C13.9898 0.989455 13.6864 0.979884 13.3918 1.03603L2.65659 2.86831C2.1904 2.95715 1.76982 3.20589 1.4674 3.57164C1.16498 3.93739 0.999679 4.3972 1 4.87178V6.86915" stroke="#29AB51" stroke-width="1.5" stroke-linejoin="round"/>
<path d="M14.0437 11.435C13.7857 11.435 13.5335 11.3585 13.319 11.2151C13.1045 11.0718 12.9373 10.8681 12.8385 10.6297C12.7398 10.3914 12.714 10.1291 12.7643 9.8761C12.8147 9.62307 12.9389 9.39065 13.1213 9.20822C13.3037 9.0258 13.5362 8.90157 13.7892 8.85124C14.0422 8.80091 14.3045 8.82674 14.5428 8.92546C14.7812 9.02419 14.9849 9.19138 15.1282 9.40589C15.2716 9.62039 15.3481 9.87259 15.3481 10.1306C15.3481 10.4765 15.2106 10.8083 14.966 11.0529C14.7214 11.2975 14.3896 11.435 14.0437 11.435Z" fill="#29AB51"/>
</svg>
