<svg width="33" height="33" viewBox="0 0 33 33" fill="none" xmlns="http://www.w3.org/2000/svg">
<rect width="33" height="33" rx="16.5" fill="#F8C300"/>
<path d="M3.53564 11.7974C3.53564 11.7974 4.56342 11.6677 5.24865 12.2747C5.67156 12.6491 5.79477 13.246 5.79477 13.246L7.19405 18.694L8.3579 14.2351C8.47094 13.7612 8.67543 13.175 8.99847 12.7788C9.41075 12.2743 10.2477 12.2424 10.3369 12.2424C10.4262 12.2424 11.2627 12.2743 11.6746 12.7788C11.9977 13.175 12.2021 13.7608 12.3156 14.2351L13.4794 18.694L14.8783 13.2459C14.8783 13.2459 15.002 12.6492 15.4249 12.2747C16.1101 11.6677 17.1375 11.7973 17.1375 11.7973L14.458 21.9787C14.458 21.9787 13.5743 22.043 13.1317 21.8164C12.5507 21.5188 12.2749 21.2893 11.9229 19.9037C11.7451 19.1949 11.5694 18.4856 11.3959 17.7758L11.33 17.5084C11.1637 16.8292 10.9965 16.1503 10.8284 15.4715L10.7646 15.2165C10.706 14.9853 10.6656 14.8297 10.6512 14.783C10.6116 14.655 10.5644 14.3502 10.3366 14.3502C10.1139 14.3502 10.0624 14.6554 10.022 14.783C10.0072 14.8297 9.96679 14.9848 9.90855 15.2165L9.84474 15.4715C9.70904 16.017 9.57445 16.5628 9.44098 17.1088L9.37555 17.375C9.1697 18.2186 8.96141 19.0616 8.75068 19.904C8.39872 21.2893 8.12247 21.5193 7.54136 21.8164C7.0989 22.043 6.2152 21.9787 6.2152 21.9787L3.53564 11.7974ZM19.687 13.4861V13.8538H19.6879V19.9998C19.6832 21.261 19.5612 21.5411 19.0308 21.8314C18.6184 22.057 17.9876 21.9717 17.9876 21.9717V15.0868C17.9876 14.7413 18.0947 14.5147 18.4896 14.3115C18.7255 14.19 18.9453 14.0969 19.174 13.9592C19.4864 13.7722 19.6449 13.5498 19.6798 13.4971L19.687 13.4861ZM20.538 11.8314C20.538 11.8314 21.9224 11.5861 22.608 12.2352C22.9936 12.6003 23.4199 13.2226 23.5164 13.3663L23.5346 13.3935L23.5368 13.3968L24.7439 15.2059C24.8022 15.2999 24.8787 15.4023 25.0011 15.4023C25.1231 15.4023 25.2 15.3003 25.2587 15.2059L26.4655 13.3968L26.4675 13.3935L26.4858 13.3663C26.5823 13.2226 27.0086 12.6003 27.3946 12.2348C28.0798 11.5861 29.4642 11.831 29.4642 11.831L26.184 16.9044L29.4553 21.9614C29.4553 21.9614 28.039 22.1509 27.3534 21.5019C26.9147 21.087 26.4654 20.4116 26.4654 20.4116L25.2583 18.603C25.2 18.5086 25.1231 18.4062 25.0011 18.4062C24.8787 18.4062 24.8022 18.5082 24.7435 18.603L23.5368 20.4116C23.5368 20.4116 23.1121 21.087 22.6739 21.5019C21.9883 22.1509 20.5465 21.9614 20.5465 21.9614L23.8178 16.9044L20.538 11.8314ZM19.6836 11.7859H19.6879C19.6879 12.4617 19.6241 12.8634 19.2161 13.1754C19.0266 13.321 18.8177 13.4393 18.5955 13.5269C18.3701 13.6149 18.1638 13.7454 17.9876 13.9112C17.9876 12.6802 18.1674 12.2343 18.6507 11.9704C18.9512 11.8063 19.4447 11.7876 19.622 11.7859H19.6836Z" fill="white"/>
</svg>
