<svg width="25" height="26" viewBox="0 0 25 26" fill="none" xmlns="http://www.w3.org/2000/svg">
<path fill-rule="evenodd" clip-rule="evenodd" d="M12.4107 0.469727C5.59447 0.469727 0.0625 6.0017 0.0625 12.8179C0.0625 19.6341 5.59447 25.166 12.4107 25.166C19.2268 25.166 24.7588 19.6341 24.7588 12.8179C24.7588 6.0017 19.2268 0.469727 12.4107 0.469727ZM14.1523 20.338V22.6965H10.8554V20.3133C8.74382 19.8688 6.95334 18.5105 6.81751 16.115H9.23775C9.36123 17.4115 10.2503 18.4241 12.51 18.4241C14.9302 18.4241 15.4736 17.214 15.4736 16.4607C15.4736 15.4358 14.9302 14.4727 12.1766 13.8182C9.11427 13.0773 7.01508 11.8178 7.01508 9.28644C7.01508 7.16256 8.73147 5.77956 10.8554 5.32268V2.93949H14.1523V5.34738C16.4491 5.90305 17.5975 7.64414 17.6715 9.5334H15.2513C15.1896 8.16276 14.461 7.2243 12.51 7.2243C10.6578 7.2243 9.54645 8.06397 9.54645 9.2494C9.54645 10.2866 10.3491 10.9658 12.8434 11.6079C15.3377 12.25 18.0049 13.3243 18.0049 16.436C17.9926 18.6957 16.3009 19.9306 14.1523 20.338Z" fill="#29AB51"/>
</svg>
