<svg width="23" height="26" viewBox="0 0 23 26" fill="none" xmlns="http://www.w3.org/2000/svg">
<path fill-rule="evenodd" clip-rule="evenodd" d="M20.0539 3.22989H14.8924C14.3738 1.7975 13.0155 0.760254 11.4102 0.760254C9.80496 0.760254 8.44666 1.7975 7.92804 3.22989H2.76651C1.40821 3.22989 0.296875 4.34122 0.296875 5.69952V22.9869C0.296875 24.3452 1.40821 25.4566 2.76651 25.4566H20.0539C21.4122 25.4566 22.5236 24.3452 22.5236 22.9869V5.69952C22.5236 4.34122 21.4122 3.22989 20.0539 3.22989ZM11.4107 3.23002C12.0899 3.23002 12.6456 3.78568 12.6456 4.46483C12.6456 5.14398 12.0899 5.69965 11.4107 5.69965C10.7316 5.69965 10.1759 5.14398 10.1759 4.46483C10.1759 3.78568 10.7316 3.23002 11.4107 3.23002ZM11.4089 8.1691C13.4586 8.1691 15.1133 9.82375 15.1133 11.8735C15.1133 13.9233 13.4586 15.578 11.4089 15.578C9.35906 15.578 7.70441 13.9233 7.70441 11.8735C7.70441 9.82375 9.35906 8.1691 11.4089 8.1691ZM18.8193 22.9869H4.00152V21.2582C4.00152 18.7886 8.94078 17.4303 11.4104 17.4303C13.88 17.4303 18.8193 18.7886 18.8193 21.2582V22.9869Z" fill="#29AB51"/>
</svg>
