<svg width="25" height="20" viewBox="0 0 25 20" fill="none" xmlns="http://www.w3.org/2000/svg">
<path fill-rule="evenodd" clip-rule="evenodd" d="M18.5838 19.9587V8.84537H16.1142V0.20166H24.7579L22.2883 6.37574H24.7579L18.5838 19.9587ZM16.1151 11.3147V19.9584H2.53213C1.17383 19.9584 0.0625 18.8471 0.0625 17.4888V13.7843C0.0625 12.426 1.17383 11.3147 2.53213 11.3147H16.1151ZM5.31065 14.7106H3.45842V16.5629H5.31065V14.7106ZM13.6455 0.20166V8.84537H2.53213C1.17383 8.84537 0.0625 7.73404 0.0625 6.37574V2.67129C0.0625 1.31299 1.17383 0.20166 2.53213 0.20166H13.6455ZM5.31065 3.59758H3.45842V5.44981H5.31065V3.59758Z" fill="#29AB51"/>
</svg>
